%TF.GenerationSoftware,KiCad,Pcbnew,9.0.7*%
%TF.CreationDate,2026-04-26T10:33:40+02:00*%
%TF.ProjectId,KapTesterV2,4b617054-6573-4746-9572-56322e6b6963,rev?*%
%TF.SameCoordinates,Original*%
%TF.FileFunction,Copper,L2,Bot*%
%TF.FilePolarity,Positive*%
%FSLAX46Y46*%
G04 Gerber Fmt 4.6, Leading zero omitted, Abs format (unit mm)*
G04 Created by KiCad (PCBNEW 9.0.7) date 2026-04-26 10:33:40*
%MOMM*%
%LPD*%
G01*
G04 APERTURE LIST*
G04 Aperture macros list*
%AMRoundRect*
0 Rectangle with rounded corners*
0 $1 Rounding radius*
0 $2 $3 $4 $5 $6 $7 $8 $9 X,Y pos of 4 corners*
0 Add a 4 corners polygon primitive as box body*
4,1,4,$2,$3,$4,$5,$6,$7,$8,$9,$2,$3,0*
0 Add four circle primitives for the rounded corners*
1,1,$1+$1,$2,$3*
1,1,$1+$1,$4,$5*
1,1,$1+$1,$6,$7*
1,1,$1+$1,$8,$9*
0 Add four rect primitives between the rounded corners*
20,1,$1+$1,$2,$3,$4,$5,0*
20,1,$1+$1,$4,$5,$6,$7,0*
20,1,$1+$1,$6,$7,$8,$9,0*
20,1,$1+$1,$8,$9,$2,$3,0*%
G04 Aperture macros list end*
%TA.AperFunction,ComponentPad*%
%ADD10R,1.700000X1.700000*%
%TD*%
%TA.AperFunction,ComponentPad*%
%ADD11C,1.600000*%
%TD*%
%TA.AperFunction,ComponentPad*%
%ADD12C,2.000000*%
%TD*%
%TA.AperFunction,ComponentPad*%
%ADD13R,1.800000X1.800000*%
%TD*%
%TA.AperFunction,ComponentPad*%
%ADD14C,1.800000*%
%TD*%
%TA.AperFunction,ComponentPad*%
%ADD15C,1.700000*%
%TD*%
%TA.AperFunction,ComponentPad*%
%ADD16C,1.500000*%
%TD*%
%TA.AperFunction,ComponentPad*%
%ADD17RoundRect,0.250000X1.050000X-1.050000X1.050000X1.050000X-1.050000X1.050000X-1.050000X-1.050000X0*%
%TD*%
%TA.AperFunction,ComponentPad*%
%ADD18C,2.600000*%
%TD*%
%TA.AperFunction,ViaPad*%
%ADD19C,0.600000*%
%TD*%
%TA.AperFunction,Conductor*%
%ADD20C,0.500000*%
%TD*%
%TA.AperFunction,Conductor*%
%ADD21C,0.200000*%
%TD*%
G04 APERTURE END LIST*
D10*
%TO.P,JTP4,1,Pin_1*%
%TO.N,+5V_BOARD*%
X150100000Y-63800000D03*
%TD*%
%TO.P,JTP5,1,Pin_1*%
%TO.N,GND*%
X158000000Y-63800000D03*
%TD*%
%TO.P,JTP8,1,Pin_1*%
%TO.N,/RESET*%
X179100000Y-63800000D03*
%TD*%
%TO.P,JTP1,1,Pin_1*%
%TO.N,/USB_5V*%
X124800000Y-63800000D03*
%TD*%
D11*
%TO.P,C7,1*%
%TO.N,GND*%
X161000000Y-102500000D03*
%TO.P,C7,2*%
%TO.N,Net-(U1-XTAL2{slash}PB7)*%
X161000000Y-100000000D03*
%TD*%
D12*
%TO.P,SW1,1,1*%
%TO.N,/START_BTN*%
X161200000Y-122500000D03*
X167700000Y-122500000D03*
%TO.P,SW1,2,2*%
%TO.N,GND*%
X161200000Y-127000000D03*
X167700000Y-127000000D03*
%TD*%
D13*
%TO.P,D2,1,K*%
%TO.N,GND*%
X138960000Y-125100000D03*
D14*
%TO.P,D2,2,A*%
%TO.N,Net-(D2-A)*%
X141500000Y-125100000D03*
%TD*%
D11*
%TO.P,R10,1*%
%TO.N,/RESET*%
X187080000Y-95700000D03*
%TO.P,R10,2*%
%TO.N,+5V_BOARD*%
X194700000Y-95700000D03*
%TD*%
D10*
%TO.P,JTP2,1,Pin_1*%
%TO.N,+5V_BOARD*%
X133500000Y-63800000D03*
%TD*%
%TO.P,JTP3,1,Pin_1*%
%TO.N,/I2C_SDA*%
X142100000Y-63800000D03*
%TD*%
%TO.P,JTP6,1,Pin_1*%
%TO.N,/ADC_MEAS*%
X165100000Y-63800000D03*
%TD*%
%TO.P,J2,1,Pin_1*%
%TO.N,GND*%
X198660000Y-74300000D03*
D15*
%TO.P,J2,2,Pin_2*%
%TO.N,+5V_BOARD*%
X201200000Y-74300000D03*
%TO.P,J2,3,Pin_3*%
%TO.N,/I2C_SCL*%
X203740000Y-74300000D03*
%TO.P,J2,4,Pin_4*%
%TO.N,/I2C_SDA*%
X206280000Y-74300000D03*
%TD*%
D11*
%TO.P,C6,1*%
%TO.N,Net-(U1-XTAL1{slash}PB6)*%
X160400000Y-88150000D03*
%TO.P,C6,2*%
%TO.N,GND*%
X160400000Y-85650000D03*
%TD*%
%TO.P,R8,1*%
%TO.N,/LM317_OUT*%
X187380000Y-105800000D03*
%TO.P,R8,2*%
%TO.N,/MEAS_NODE*%
X195000000Y-105800000D03*
%TD*%
D10*
%TO.P,J4,1,MISO*%
%TO.N,/MISO*%
X201300000Y-65840000D03*
D15*
%TO.P,J4,2,VCC*%
%TO.N,+5V_BOARD*%
X201300000Y-63300000D03*
%TO.P,J4,3,SCK*%
%TO.N,/SCK*%
X203840000Y-65840000D03*
%TO.P,J4,4,MOSI*%
%TO.N,/MOSI*%
X203840000Y-63300000D03*
%TO.P,J4,5,~{RST}*%
%TO.N,/RESET*%
X206380000Y-65840000D03*
%TO.P,J4,6,GND*%
%TO.N,GND*%
X206380000Y-63300000D03*
%TD*%
D13*
%TO.P,D1,1,K*%
%TO.N,GND*%
X150260000Y-125200000D03*
D14*
%TO.P,D1,2,A*%
%TO.N,Net-(D1-A)*%
X152800000Y-125200000D03*
%TD*%
D11*
%TO.P,R9,1*%
%TO.N,/DISCH_GATE*%
X187080000Y-91000000D03*
%TO.P,R9,2*%
%TO.N,GND*%
X194700000Y-91000000D03*
%TD*%
D10*
%TO.P,JTP10,1,Pin_1*%
%TO.N,/DISCH_GATE*%
X193200000Y-63800000D03*
%TD*%
%TO.P,JTP7,1,Pin_1*%
%TO.N,+5V_BOARD*%
X172200000Y-63800000D03*
%TD*%
D16*
%TO.P,Y1,1,1*%
%TO.N,Net-(U1-XTAL2{slash}PB7)*%
X157100000Y-96900000D03*
%TO.P,Y1,2,2*%
%TO.N,Net-(U1-XTAL1{slash}PB6)*%
X157100000Y-92020000D03*
%TD*%
D17*
%TO.P,J3,1,Pin_1*%
%TO.N,/MEAS_NODE*%
X203400000Y-96380000D03*
D18*
%TO.P,J3,2,Pin_2*%
%TO.N,GND*%
X203400000Y-91300000D03*
%TD*%
D10*
%TO.P,JTP9,1,Pin_1*%
%TO.N,/MEAS_NODE*%
X186100000Y-63800000D03*
%TD*%
D19*
%TO.N,GND*%
X190600000Y-101700000D03*
X166300000Y-91200000D03*
X180700000Y-94600000D03*
X165600000Y-80300000D03*
X180800000Y-83300000D03*
X170894000Y-93300000D03*
X164500000Y-107100000D03*
X189700000Y-75500000D03*
X161600000Y-80200000D03*
X189700000Y-83200000D03*
%TO.N,/ADC_MEAS*%
X165100000Y-67400000D03*
X173400000Y-83700000D03*
%TO.N,Net-(U1-AREF)*%
X183600000Y-96100000D03*
X172700000Y-94100000D03*
%TO.N,+5V_BOARD*%
X180900000Y-87500000D03*
X172600000Y-95700000D03*
X192400000Y-87500000D03*
%TO.N,/START_BTN*%
X167900000Y-91000000D03*
%TO.N,/I2C_SDA*%
X148400000Y-70400000D03*
X167900000Y-87200000D03*
%TO.N,/I2C_SCL*%
X197700000Y-77800000D03*
X192200000Y-75500000D03*
X163400000Y-91200000D03*
X195600000Y-79300000D03*
%TO.N,/MEAS_NODE*%
X190600000Y-85900000D03*
X189000000Y-101700000D03*
X188400000Y-88100000D03*
%TO.N,/RESET*%
X186000000Y-86500000D03*
X185500000Y-92900000D03*
%TO.N,/MISO*%
X172600000Y-97900000D03*
%TO.N,/MOSI*%
X196900000Y-95800000D03*
X196900000Y-92300000D03*
%TO.N,/SCK*%
X172600000Y-96500000D03*
%TO.N,/DISCH_GATE*%
X188500000Y-84300000D03*
%TO.N,/LED_PWR*%
X162400000Y-112700000D03*
X162400000Y-90700000D03*
%TO.N,/LED_ERR*%
X159827790Y-91127790D03*
X152200000Y-94500000D03*
%TD*%
D20*
%TO.N,GND*%
X194700000Y-91000000D02*
X194700000Y-78260000D01*
X186574971Y-97674971D02*
X190600000Y-101700000D01*
X170900000Y-99800000D02*
X184449942Y-99800000D01*
X184201000Y-94600000D02*
X180700000Y-94600000D01*
X181900000Y-83300000D02*
X180800000Y-83300000D01*
X170900000Y-93306000D02*
X170900000Y-99800000D01*
X161700000Y-80300000D02*
X165600000Y-80300000D01*
X164500000Y-123800000D02*
X167700000Y-127000000D01*
X164500000Y-107100000D02*
X164500000Y-123800000D01*
X184201000Y-95301000D02*
X186574971Y-97674971D01*
X194700000Y-78260000D02*
X194640000Y-78260000D01*
X203400000Y-91300000D02*
X195000000Y-91300000D01*
X194700000Y-78260000D02*
X198660000Y-74300000D01*
X161600000Y-80200000D02*
X161700000Y-80300000D01*
X194640000Y-78260000D02*
X189700000Y-83200000D01*
X184201000Y-94600000D02*
X184201000Y-95301000D01*
X170894000Y-93300000D02*
X170900000Y-93306000D01*
X165950000Y-91200000D02*
X160400000Y-85650000D01*
X189700000Y-75500000D02*
X181900000Y-83300000D01*
X184449942Y-99800000D02*
X186574971Y-97674971D01*
X195000000Y-91300000D02*
X194700000Y-91000000D01*
X166300000Y-91200000D02*
X165950000Y-91200000D01*
D21*
%TO.N,/ADC_MEAS*%
X165100000Y-75400000D02*
X173400000Y-83700000D01*
X165100000Y-67400000D02*
X165100000Y-75400000D01*
%TO.N,Net-(U1-AREF)*%
X171598000Y-96302000D02*
X171598000Y-98315043D01*
X172184957Y-98902000D02*
X180798000Y-98902000D01*
X180798000Y-98902000D02*
X183600000Y-96100000D01*
X171598000Y-98315043D02*
X172184957Y-98902000D01*
X172700000Y-94100000D02*
X171900000Y-94900000D01*
X171900000Y-96000000D02*
X171598000Y-96302000D01*
X171900000Y-94900000D02*
X171900000Y-96000000D01*
%TO.N,+5V_BOARD*%
X192400000Y-90300000D02*
X194700000Y-92600000D01*
X180800000Y-87500000D02*
X180900000Y-87500000D01*
X192400000Y-87500000D02*
X192400000Y-90300000D01*
X172600000Y-95700000D02*
X180800000Y-87500000D01*
X194700000Y-92600000D02*
X194700000Y-95700000D01*
%TO.N,/START_BTN*%
X167900000Y-91000000D02*
X167700000Y-91200000D01*
X167700000Y-91200000D02*
X167700000Y-122500000D01*
%TO.N,/I2C_SDA*%
X148400000Y-70400000D02*
X165200000Y-87200000D01*
X165200000Y-87200000D02*
X167900000Y-87200000D01*
%TO.N,/I2C_SCL*%
X195600000Y-79300000D02*
X196200000Y-79300000D01*
X196200000Y-79300000D02*
X197700000Y-77800000D01*
X170293000Y-115537950D02*
X170293000Y-93051057D01*
X166399000Y-123038892D02*
X167161108Y-123801000D01*
X176445057Y-86899000D02*
X180801000Y-86899000D01*
X170293000Y-93051057D02*
X176445057Y-86899000D01*
X163400000Y-91200000D02*
X166399000Y-94199000D01*
X167161108Y-123801000D02*
X178556050Y-123801000D01*
X178556050Y-123801000D02*
X170293000Y-115537950D01*
X180801000Y-86899000D02*
X192200000Y-75500000D01*
X166399000Y-94199000D02*
X166399000Y-123038892D01*
D20*
%TO.N,/MEAS_NODE*%
X188400000Y-88100000D02*
X190600000Y-85900000D01*
X189100000Y-101700000D02*
X193200000Y-105800000D01*
X193200000Y-105800000D02*
X195000000Y-105800000D01*
X189000000Y-101700000D02*
X189100000Y-101700000D01*
D21*
%TO.N,/RESET*%
X180251000Y-64951000D02*
X179100000Y-63800000D01*
X206380000Y-65840000D02*
X205229000Y-64689000D01*
X194613000Y-64689000D02*
X194351000Y-64951000D01*
X185500000Y-87000000D02*
X186000000Y-86500000D01*
X185500000Y-92900000D02*
X185500000Y-87000000D01*
X205229000Y-64689000D02*
X194613000Y-64689000D01*
X194351000Y-64951000D02*
X180251000Y-64951000D01*
%TO.N,/MISO*%
X172600000Y-97900000D02*
X172600000Y-97400000D01*
X172600000Y-97400000D02*
X201300000Y-68700000D01*
X201300000Y-68700000D02*
X201300000Y-65840000D01*
%TO.N,/MOSI*%
X196900000Y-92300000D02*
X196900000Y-95800000D01*
%TO.N,/SCK*%
X199948943Y-71801000D02*
X203840000Y-67909943D01*
X172351057Y-98501000D02*
X173299000Y-98501000D01*
X171999000Y-97101000D02*
X171999000Y-98148943D01*
X172600000Y-96500000D02*
X171999000Y-97101000D01*
X203840000Y-67909943D02*
X203840000Y-65840000D01*
X171999000Y-98148943D02*
X172351057Y-98501000D01*
X173299000Y-97359000D02*
X198857000Y-71801000D01*
X198857000Y-71801000D02*
X199948943Y-71801000D01*
X173299000Y-98501000D02*
X173299000Y-97359000D01*
%TO.N,/DISCH_GATE*%
X187080000Y-85720000D02*
X188500000Y-84300000D01*
X187080000Y-91000000D02*
X187080000Y-85720000D01*
%TO.N,/LED_PWR*%
X162400000Y-90700000D02*
X162400000Y-112700000D01*
%TO.N,/LED_ERR*%
X156455580Y-94500000D02*
X152200000Y-94500000D01*
X152200000Y-94500000D02*
X152200000Y-94600000D01*
X159827790Y-91127790D02*
X156455580Y-94500000D01*
%TD*%
%TA.AperFunction,Conductor*%
%TO.N,GND*%
G36*
X179718942Y-87519185D02*
G01*
X179764697Y-87571989D01*
X179774641Y-87641147D01*
X179745616Y-87704703D01*
X179739584Y-87711181D01*
X173634504Y-93816259D01*
X173573181Y-93849744D01*
X173503489Y-93844760D01*
X173447556Y-93802888D01*
X173432263Y-93776033D01*
X173409394Y-93720821D01*
X173409390Y-93720814D01*
X173321789Y-93589711D01*
X173321786Y-93589707D01*
X173210292Y-93478213D01*
X173210288Y-93478210D01*
X173079185Y-93390609D01*
X173079172Y-93390602D01*
X172933501Y-93330264D01*
X172933489Y-93330261D01*
X172778845Y-93299500D01*
X172778842Y-93299500D01*
X172621158Y-93299500D01*
X172621155Y-93299500D01*
X172466510Y-93330261D01*
X172466498Y-93330264D01*
X172320827Y-93390602D01*
X172320814Y-93390609D01*
X172189711Y-93478210D01*
X172189707Y-93478213D01*
X172078213Y-93589707D01*
X172078210Y-93589711D01*
X171990609Y-93720814D01*
X171990602Y-93720827D01*
X171930264Y-93866498D01*
X171930261Y-93866508D01*
X171899361Y-94021850D01*
X171866976Y-94083761D01*
X171865425Y-94085339D01*
X171419481Y-94531282D01*
X171419479Y-94531285D01*
X171403190Y-94559498D01*
X171386901Y-94587713D01*
X171340423Y-94668215D01*
X171299499Y-94820943D01*
X171299499Y-94820945D01*
X171299499Y-94989046D01*
X171299500Y-94989059D01*
X171299500Y-95699901D01*
X171290855Y-95729340D01*
X171284333Y-95759326D01*
X171280577Y-95764342D01*
X171279815Y-95766940D01*
X171263183Y-95787581D01*
X171229286Y-95821478D01*
X171229284Y-95821479D01*
X171229283Y-95821480D01*
X171229284Y-95821480D01*
X171117479Y-95933284D01*
X171115873Y-95935378D01*
X171114068Y-95936695D01*
X171111733Y-95939031D01*
X171111368Y-95938666D01*
X171059443Y-95976579D01*
X170989697Y-95980731D01*
X170928778Y-95946516D01*
X170896028Y-95884797D01*
X170893500Y-95859888D01*
X170893500Y-93351154D01*
X170913185Y-93284115D01*
X170929819Y-93263473D01*
X176657473Y-87535819D01*
X176718796Y-87502334D01*
X176745154Y-87499500D01*
X179651903Y-87499500D01*
X179718942Y-87519185D01*
G37*
%TD.AperFunction*%
%TA.AperFunction,Conductor*%
G36*
X209542539Y-60420185D02*
G01*
X209588294Y-60472989D01*
X209599500Y-60524500D01*
X209599500Y-129275500D01*
X209579815Y-129342539D01*
X209527011Y-129388294D01*
X209475500Y-129399500D01*
X120724500Y-129399500D01*
X120657461Y-129379815D01*
X120611706Y-129327011D01*
X120600500Y-129275500D01*
X120600500Y-126881947D01*
X159700000Y-126881947D01*
X159700000Y-127118052D01*
X159736934Y-127351247D01*
X159809897Y-127575802D01*
X159917087Y-127786174D01*
X159977338Y-127869104D01*
X159977340Y-127869105D01*
X160676212Y-127170233D01*
X160687482Y-127212292D01*
X160759890Y-127337708D01*
X160862292Y-127440110D01*
X160987708Y-127512518D01*
X161029765Y-127523787D01*
X160330893Y-128222658D01*
X160413828Y-128282914D01*
X160624197Y-128390102D01*
X160848752Y-128463065D01*
X160848751Y-128463065D01*
X161081948Y-128500000D01*
X161318052Y-128500000D01*
X161551247Y-128463065D01*
X161775802Y-128390102D01*
X161986163Y-128282918D01*
X161986169Y-128282914D01*
X162069104Y-128222658D01*
X162069105Y-128222658D01*
X161370233Y-127523787D01*
X161412292Y-127512518D01*
X161537708Y-127440110D01*
X161640110Y-127337708D01*
X161712518Y-127212292D01*
X161723787Y-127170234D01*
X162422658Y-127869105D01*
X162422658Y-127869104D01*
X162482914Y-127786169D01*
X162482918Y-127786163D01*
X162590102Y-127575802D01*
X162663065Y-127351247D01*
X162700000Y-127118052D01*
X162700000Y-126881947D01*
X166200000Y-126881947D01*
X166200000Y-127118052D01*
X166236934Y-127351247D01*
X166309897Y-127575802D01*
X166417087Y-127786174D01*
X166477338Y-127869104D01*
X166477340Y-127869105D01*
X167176212Y-127170233D01*
X167187482Y-127212292D01*
X167259890Y-127337708D01*
X167362292Y-127440110D01*
X167487708Y-127512518D01*
X167529765Y-127523787D01*
X166830893Y-128222658D01*
X166913828Y-128282914D01*
X167124197Y-128390102D01*
X167348752Y-128463065D01*
X167348751Y-128463065D01*
X167581948Y-128500000D01*
X167818052Y-128500000D01*
X168051247Y-128463065D01*
X168275802Y-128390102D01*
X168486163Y-128282918D01*
X168486169Y-128282914D01*
X168569104Y-128222658D01*
X168569105Y-128222658D01*
X167870233Y-127523787D01*
X167912292Y-127512518D01*
X168037708Y-127440110D01*
X168140110Y-127337708D01*
X168212518Y-127212292D01*
X168223787Y-127170234D01*
X168922658Y-127869105D01*
X168922658Y-127869104D01*
X168982914Y-127786169D01*
X168982918Y-127786163D01*
X169090102Y-127575802D01*
X169163065Y-127351247D01*
X169200000Y-127118052D01*
X169200000Y-126881947D01*
X169163065Y-126648752D01*
X169090102Y-126424197D01*
X168982914Y-126213828D01*
X168922658Y-126130894D01*
X168922658Y-126130893D01*
X168223787Y-126829765D01*
X168212518Y-126787708D01*
X168140110Y-126662292D01*
X168037708Y-126559890D01*
X167912292Y-126487482D01*
X167870234Y-126476212D01*
X168569105Y-125777340D01*
X168569104Y-125777338D01*
X168486174Y-125717087D01*
X168275802Y-125609897D01*
X168051247Y-125536934D01*
X168051248Y-125536934D01*
X167818052Y-125500000D01*
X167581948Y-125500000D01*
X167348752Y-125536934D01*
X167124197Y-125609897D01*
X166913830Y-125717084D01*
X166830894Y-125777340D01*
X167529766Y-126476212D01*
X167487708Y-126487482D01*
X167362292Y-126559890D01*
X167259890Y-126662292D01*
X167187482Y-126787708D01*
X167176212Y-126829766D01*
X166477340Y-126130894D01*
X166417084Y-126213830D01*
X166309897Y-126424197D01*
X166236934Y-126648752D01*
X166200000Y-126881947D01*
X162700000Y-126881947D01*
X162663065Y-126648752D01*
X162590102Y-126424197D01*
X162482914Y-126213828D01*
X162422658Y-126130894D01*
X162422658Y-126130893D01*
X161723787Y-126829765D01*
X161712518Y-126787708D01*
X161640110Y-126662292D01*
X161537708Y-126559890D01*
X161412292Y-126487482D01*
X161370234Y-126476212D01*
X162069105Y-125777340D01*
X162069104Y-125777339D01*
X161986174Y-125717087D01*
X161775802Y-125609897D01*
X161551247Y-125536934D01*
X161551248Y-125536934D01*
X161318052Y-125500000D01*
X161081948Y-125500000D01*
X160848752Y-125536934D01*
X160624197Y-125609897D01*
X160413830Y-125717084D01*
X160330894Y-125777340D01*
X161029766Y-126476212D01*
X160987708Y-126487482D01*
X160862292Y-126559890D01*
X160759890Y-126662292D01*
X160687482Y-126787708D01*
X160676212Y-126829766D01*
X159977340Y-126130894D01*
X159917084Y-126213830D01*
X159809897Y-126424197D01*
X159736934Y-126648752D01*
X159700000Y-126881947D01*
X120600500Y-126881947D01*
X120600500Y-124152155D01*
X137560000Y-124152155D01*
X137560000Y-124850000D01*
X138584722Y-124850000D01*
X138540667Y-124926306D01*
X138510000Y-125040756D01*
X138510000Y-125159244D01*
X138540667Y-125273694D01*
X138584722Y-125350000D01*
X137560000Y-125350000D01*
X137560000Y-126047844D01*
X137566401Y-126107372D01*
X137566403Y-126107379D01*
X137616645Y-126242086D01*
X137616649Y-126242093D01*
X137702809Y-126357187D01*
X137702812Y-126357190D01*
X137817906Y-126443350D01*
X137817913Y-126443354D01*
X137952620Y-126493596D01*
X137952627Y-126493598D01*
X138012155Y-126499999D01*
X138012172Y-126500000D01*
X138710000Y-126500000D01*
X138710000Y-125475277D01*
X138786306Y-125519333D01*
X138900756Y-125550000D01*
X139019244Y-125550000D01*
X139133694Y-125519333D01*
X139210000Y-125475277D01*
X139210000Y-126500000D01*
X139907828Y-126500000D01*
X139907844Y-126499999D01*
X139967372Y-126493598D01*
X139967379Y-126493596D01*
X140102086Y-126443354D01*
X140102093Y-126443350D01*
X140217187Y-126357190D01*
X140217190Y-126357187D01*
X140303350Y-126242093D01*
X140303354Y-126242086D01*
X140333213Y-126162031D01*
X140375084Y-126106097D01*
X140440548Y-126081680D01*
X140508821Y-126096531D01*
X140537076Y-126117683D01*
X140587636Y-126168243D01*
X140587641Y-126168247D01*
X140716725Y-126262031D01*
X140765978Y-126297815D01*
X140852864Y-126342086D01*
X140962393Y-126397895D01*
X140962396Y-126397896D01*
X141043344Y-126424197D01*
X141172049Y-126466015D01*
X141389778Y-126500500D01*
X141389779Y-126500500D01*
X141610221Y-126500500D01*
X141610222Y-126500500D01*
X141827951Y-126466015D01*
X142037606Y-126397895D01*
X142234022Y-126297815D01*
X142412365Y-126168242D01*
X142568242Y-126012365D01*
X142697815Y-125834022D01*
X142797895Y-125637606D01*
X142866015Y-125427951D01*
X142900500Y-125210222D01*
X142900500Y-124989778D01*
X142866015Y-124772049D01*
X142830386Y-124662393D01*
X142797896Y-124562396D01*
X142797895Y-124562393D01*
X142748766Y-124465974D01*
X142697815Y-124365978D01*
X142692754Y-124359012D01*
X142665672Y-124321736D01*
X142615119Y-124252155D01*
X148860000Y-124252155D01*
X148860000Y-124950000D01*
X149884722Y-124950000D01*
X149840667Y-125026306D01*
X149810000Y-125140756D01*
X149810000Y-125259244D01*
X149840667Y-125373694D01*
X149884722Y-125450000D01*
X148860000Y-125450000D01*
X148860000Y-126147844D01*
X148866401Y-126207372D01*
X148866403Y-126207379D01*
X148916645Y-126342086D01*
X148916649Y-126342093D01*
X149002809Y-126457187D01*
X149002812Y-126457190D01*
X149117906Y-126543350D01*
X149117913Y-126543354D01*
X149252620Y-126593596D01*
X149252627Y-126593598D01*
X149312155Y-126599999D01*
X149312172Y-126600000D01*
X150010000Y-126600000D01*
X150010000Y-125575277D01*
X150086306Y-125619333D01*
X150200756Y-125650000D01*
X150319244Y-125650000D01*
X150433694Y-125619333D01*
X150510000Y-125575277D01*
X150510000Y-126600000D01*
X151207828Y-126600000D01*
X151207844Y-126599999D01*
X151267372Y-126593598D01*
X151267379Y-126593596D01*
X151402086Y-126543354D01*
X151402093Y-126543350D01*
X151517187Y-126457190D01*
X151517190Y-126457187D01*
X151603350Y-126342093D01*
X151603354Y-126342086D01*
X151633213Y-126262031D01*
X151675084Y-126206097D01*
X151740548Y-126181680D01*
X151808821Y-126196531D01*
X151837076Y-126217683D01*
X151887636Y-126268243D01*
X151887641Y-126268247D01*
X152010058Y-126357187D01*
X152065978Y-126397815D01*
X152168396Y-126450000D01*
X152262393Y-126497895D01*
X152262396Y-126497896D01*
X152367221Y-126531955D01*
X152472049Y-126566015D01*
X152689778Y-126600500D01*
X152689779Y-126600500D01*
X152910221Y-126600500D01*
X152910222Y-126600500D01*
X153127951Y-126566015D01*
X153337606Y-126497895D01*
X153534022Y-126397815D01*
X153712365Y-126268242D01*
X153868242Y-126112365D01*
X153997815Y-125934022D01*
X154048767Y-125834025D01*
X154082255Y-125768303D01*
X154082255Y-125768302D01*
X154097892Y-125737611D01*
X154097895Y-125737606D01*
X154166015Y-125527951D01*
X154200500Y-125310222D01*
X154200500Y-125089778D01*
X154166015Y-124872049D01*
X154131955Y-124767221D01*
X154097896Y-124662396D01*
X154097895Y-124662393D01*
X154046941Y-124562393D01*
X153997815Y-124465978D01*
X153943002Y-124390534D01*
X153868247Y-124287641D01*
X153868243Y-124287636D01*
X153712363Y-124131756D01*
X153712358Y-124131752D01*
X153534025Y-124002187D01*
X153534024Y-124002186D01*
X153534022Y-124002185D01*
X153458203Y-123963553D01*
X153337606Y-123902104D01*
X153337603Y-123902103D01*
X153127952Y-123833985D01*
X153019086Y-123816742D01*
X152910222Y-123799500D01*
X152689778Y-123799500D01*
X152617201Y-123810995D01*
X152472047Y-123833985D01*
X152262396Y-123902103D01*
X152262393Y-123902104D01*
X152065974Y-124002187D01*
X151887641Y-124131752D01*
X151887636Y-124131756D01*
X151837075Y-124182317D01*
X151775752Y-124215801D01*
X151706060Y-124210816D01*
X151650127Y-124168945D01*
X151633213Y-124137968D01*
X151603354Y-124057913D01*
X151603350Y-124057906D01*
X151517190Y-123942812D01*
X151517187Y-123942809D01*
X151402093Y-123856649D01*
X151402086Y-123856645D01*
X151267379Y-123806403D01*
X151267372Y-123806401D01*
X151207844Y-123800000D01*
X150510000Y-123800000D01*
X150510000Y-124824722D01*
X150433694Y-124780667D01*
X150319244Y-124750000D01*
X150200756Y-124750000D01*
X150086306Y-124780667D01*
X150010000Y-124824722D01*
X150010000Y-123800000D01*
X149312155Y-123800000D01*
X149252627Y-123806401D01*
X149252620Y-123806403D01*
X149117913Y-123856645D01*
X149117906Y-123856649D01*
X149002812Y-123942809D01*
X149002809Y-123942812D01*
X148916649Y-124057906D01*
X148916645Y-124057913D01*
X148866403Y-124192620D01*
X148866401Y-124192627D01*
X148860000Y-124252155D01*
X142615119Y-124252155D01*
X142568247Y-124187640D01*
X142412363Y-124031756D01*
X142412358Y-124031752D01*
X142234025Y-123902187D01*
X142234024Y-123902186D01*
X142234022Y-123902185D01*
X142144646Y-123856645D01*
X142037606Y-123802104D01*
X142037603Y-123802103D01*
X141827952Y-123733985D01*
X141719086Y-123716742D01*
X141610222Y-123699500D01*
X141389778Y-123699500D01*
X141317201Y-123710995D01*
X141172047Y-123733985D01*
X140962396Y-123802103D01*
X140962393Y-123802104D01*
X140765974Y-123902187D01*
X140587641Y-124031752D01*
X140587636Y-124031756D01*
X140537075Y-124082317D01*
X140475752Y-124115801D01*
X140406060Y-124110816D01*
X140350127Y-124068945D01*
X140333213Y-124037968D01*
X140303354Y-123957913D01*
X140303350Y-123957906D01*
X140217190Y-123842812D01*
X140217187Y-123842809D01*
X140102093Y-123756649D01*
X140102086Y-123756645D01*
X139967379Y-123706403D01*
X139967372Y-123706401D01*
X139907844Y-123700000D01*
X139210000Y-123700000D01*
X139210000Y-124724722D01*
X139133694Y-124680667D01*
X139019244Y-124650000D01*
X138900756Y-124650000D01*
X138786306Y-124680667D01*
X138710000Y-124724722D01*
X138710000Y-123700000D01*
X138012155Y-123700000D01*
X137952627Y-123706401D01*
X137952620Y-123706403D01*
X137817913Y-123756645D01*
X137817906Y-123756649D01*
X137702812Y-123842809D01*
X137702809Y-123842812D01*
X137616649Y-123957906D01*
X137616645Y-123957913D01*
X137566403Y-124092620D01*
X137566401Y-124092627D01*
X137560000Y-124152155D01*
X120600500Y-124152155D01*
X120600500Y-122381902D01*
X159699500Y-122381902D01*
X159699500Y-122618097D01*
X159736446Y-122851368D01*
X159809433Y-123075996D01*
X159872711Y-123200184D01*
X159916657Y-123286433D01*
X160055483Y-123477510D01*
X160222490Y-123644517D01*
X160413567Y-123783343D01*
X160450386Y-123802103D01*
X160624003Y-123890566D01*
X160624005Y-123890566D01*
X160624008Y-123890568D01*
X160744412Y-123929689D01*
X160848631Y-123963553D01*
X161081903Y-124000500D01*
X161081908Y-124000500D01*
X161318097Y-124000500D01*
X161551368Y-123963553D01*
X161568726Y-123957913D01*
X161775992Y-123890568D01*
X161986433Y-123783343D01*
X162177510Y-123644517D01*
X162344517Y-123477510D01*
X162483343Y-123286433D01*
X162590568Y-123075992D01*
X162663553Y-122851368D01*
X162700500Y-122618097D01*
X162700500Y-122381902D01*
X162663553Y-122148631D01*
X162590566Y-121924003D01*
X162483342Y-121713566D01*
X162344517Y-121522490D01*
X162177510Y-121355483D01*
X161986433Y-121216657D01*
X161986429Y-121216655D01*
X161775996Y-121109433D01*
X161551368Y-121036446D01*
X161318097Y-120999500D01*
X161318092Y-120999500D01*
X161081908Y-120999500D01*
X161081903Y-120999500D01*
X160848631Y-121036446D01*
X160624003Y-121109433D01*
X160413566Y-121216657D01*
X160304550Y-121295862D01*
X160222490Y-121355483D01*
X160222488Y-121355485D01*
X160222487Y-121355485D01*
X160055485Y-121522487D01*
X160055485Y-121522488D01*
X160055483Y-121522490D01*
X159995862Y-121604550D01*
X159916657Y-121713566D01*
X159809433Y-121924003D01*
X159736446Y-122148631D01*
X159699500Y-122381902D01*
X120600500Y-122381902D01*
X120600500Y-99897648D01*
X159699500Y-99897648D01*
X159699500Y-100102351D01*
X159731522Y-100304534D01*
X159794781Y-100499223D01*
X159887715Y-100681613D01*
X160008028Y-100847213D01*
X160152786Y-100991971D01*
X160318385Y-101112284D01*
X160318387Y-101112285D01*
X160318390Y-101112287D01*
X160372378Y-101139795D01*
X160423174Y-101187769D01*
X160439969Y-101255590D01*
X160417432Y-101321725D01*
X160372378Y-101360765D01*
X160318644Y-101388143D01*
X160274077Y-101420523D01*
X160274077Y-101420524D01*
X160953553Y-102100000D01*
X160947339Y-102100000D01*
X160845606Y-102127259D01*
X160754394Y-102179920D01*
X160679920Y-102254394D01*
X160627259Y-102345606D01*
X160600000Y-102447339D01*
X160600000Y-102453553D01*
X159920524Y-101774077D01*
X159920523Y-101774077D01*
X159888143Y-101818644D01*
X159795244Y-102000968D01*
X159732009Y-102195582D01*
X159700000Y-102397682D01*
X159700000Y-102602317D01*
X159732009Y-102804417D01*
X159795244Y-102999031D01*
X159888141Y-103181350D01*
X159888147Y-103181359D01*
X159920523Y-103225921D01*
X159920524Y-103225922D01*
X160600000Y-102546446D01*
X160600000Y-102552661D01*
X160627259Y-102654394D01*
X160679920Y-102745606D01*
X160754394Y-102820080D01*
X160845606Y-102872741D01*
X160947339Y-102900000D01*
X160953552Y-102900000D01*
X160274076Y-103579474D01*
X160318650Y-103611859D01*
X160500968Y-103704755D01*
X160695582Y-103767990D01*
X160897683Y-103800000D01*
X161102317Y-103800000D01*
X161304417Y-103767990D01*
X161499031Y-103704755D01*
X161619205Y-103643523D01*
X161687874Y-103630627D01*
X161752615Y-103656903D01*
X161792872Y-103714010D01*
X161799500Y-103754008D01*
X161799500Y-112120234D01*
X161779815Y-112187273D01*
X161778602Y-112189125D01*
X161690609Y-112320814D01*
X161690602Y-112320827D01*
X161630264Y-112466498D01*
X161630261Y-112466510D01*
X161599500Y-112621153D01*
X161599500Y-112778846D01*
X161630261Y-112933489D01*
X161630264Y-112933501D01*
X161690602Y-113079172D01*
X161690609Y-113079185D01*
X161778210Y-113210288D01*
X161778213Y-113210292D01*
X161889707Y-113321786D01*
X161889711Y-113321789D01*
X162020814Y-113409390D01*
X162020827Y-113409397D01*
X162166498Y-113469735D01*
X162166503Y-113469737D01*
X162321153Y-113500499D01*
X162321156Y-113500500D01*
X162321158Y-113500500D01*
X162478844Y-113500500D01*
X162478845Y-113500499D01*
X162633497Y-113469737D01*
X162779179Y-113409394D01*
X162910289Y-113321789D01*
X163021789Y-113210289D01*
X163109394Y-113079179D01*
X163169737Y-112933497D01*
X163200500Y-112778842D01*
X163200500Y-112621158D01*
X163200500Y-112621155D01*
X163200499Y-112621153D01*
X163169738Y-112466510D01*
X163169737Y-112466503D01*
X163169735Y-112466498D01*
X163109397Y-112320827D01*
X163109390Y-112320814D01*
X163021398Y-112189125D01*
X163000520Y-112122447D01*
X163000500Y-112120234D01*
X163000500Y-92086555D01*
X163020185Y-92019516D01*
X163072989Y-91973761D01*
X163142147Y-91963817D01*
X163149538Y-91965109D01*
X163161069Y-91967486D01*
X163166503Y-91969737D01*
X163321158Y-92000500D01*
X163321197Y-92000500D01*
X163322696Y-92000809D01*
X163353222Y-92017049D01*
X163383760Y-92033023D01*
X163384364Y-92033616D01*
X163384380Y-92033625D01*
X163384388Y-92033640D01*
X163385339Y-92034574D01*
X165762181Y-94411416D01*
X165795666Y-94472739D01*
X165798500Y-94499097D01*
X165798500Y-122952222D01*
X165798499Y-122952240D01*
X165798499Y-123117946D01*
X165798498Y-123117946D01*
X165798499Y-123117949D01*
X165839423Y-123270677D01*
X165848519Y-123286431D01*
X165848520Y-123286434D01*
X165918475Y-123407601D01*
X165918481Y-123407609D01*
X166037349Y-123526477D01*
X166037355Y-123526482D01*
X166676247Y-124165374D01*
X166676257Y-124165385D01*
X166680587Y-124169715D01*
X166680588Y-124169716D01*
X166792392Y-124281520D01*
X166792394Y-124281521D01*
X166792398Y-124281524D01*
X166929317Y-124360573D01*
X166929324Y-124360577D01*
X167041127Y-124390534D01*
X167082050Y-124401500D01*
X167082051Y-124401500D01*
X167082052Y-124401500D01*
X178635105Y-124401500D01*
X178635107Y-124401500D01*
X178787834Y-124360577D01*
X178924766Y-124281520D01*
X179036570Y-124169716D01*
X179115627Y-124032784D01*
X179156550Y-123880057D01*
X179156550Y-123721943D01*
X179150536Y-123699500D01*
X179135804Y-123644517D01*
X179115627Y-123569216D01*
X179090952Y-123526477D01*
X179036574Y-123432290D01*
X179036571Y-123432286D01*
X179036570Y-123432284D01*
X178924766Y-123320480D01*
X178924765Y-123320479D01*
X178920435Y-123316149D01*
X178920424Y-123316139D01*
X170929819Y-115325534D01*
X170896334Y-115264211D01*
X170893500Y-115237853D01*
X170893500Y-105697648D01*
X186079500Y-105697648D01*
X186079500Y-105902351D01*
X186111522Y-106104534D01*
X186174781Y-106299223D01*
X186267715Y-106481613D01*
X186388028Y-106647213D01*
X186532786Y-106791971D01*
X186687749Y-106904556D01*
X186698390Y-106912287D01*
X186814607Y-106971503D01*
X186880776Y-107005218D01*
X186880778Y-107005218D01*
X186880781Y-107005220D01*
X186985137Y-107039127D01*
X187075465Y-107068477D01*
X187176557Y-107084488D01*
X187277648Y-107100500D01*
X187277649Y-107100500D01*
X187482351Y-107100500D01*
X187482352Y-107100500D01*
X187684534Y-107068477D01*
X187879219Y-107005220D01*
X188061610Y-106912287D01*
X188154590Y-106844732D01*
X188227213Y-106791971D01*
X188227215Y-106791968D01*
X188227219Y-106791966D01*
X188371966Y-106647219D01*
X188371968Y-106647215D01*
X188371971Y-106647213D01*
X188446404Y-106544763D01*
X188492287Y-106481610D01*
X188585220Y-106299219D01*
X188648477Y-106104534D01*
X188680500Y-105902352D01*
X188680500Y-105697648D01*
X188648477Y-105495466D01*
X188585220Y-105300781D01*
X188585218Y-105300778D01*
X188585218Y-105300776D01*
X188551503Y-105234607D01*
X188492287Y-105118390D01*
X188442236Y-105049500D01*
X188371971Y-104952786D01*
X188227213Y-104808028D01*
X188061613Y-104687715D01*
X188061612Y-104687714D01*
X188061610Y-104687713D01*
X188004653Y-104658691D01*
X187879223Y-104594781D01*
X187684534Y-104531522D01*
X187509995Y-104503878D01*
X187482352Y-104499500D01*
X187277648Y-104499500D01*
X187253329Y-104503351D01*
X187075465Y-104531522D01*
X186880776Y-104594781D01*
X186698386Y-104687715D01*
X186532786Y-104808028D01*
X186388028Y-104952786D01*
X186267715Y-105118386D01*
X186174781Y-105300776D01*
X186111522Y-105495465D01*
X186079500Y-105697648D01*
X170893500Y-105697648D01*
X170893500Y-101621153D01*
X188199500Y-101621153D01*
X188199500Y-101778846D01*
X188230261Y-101933489D01*
X188230264Y-101933501D01*
X188290602Y-102079172D01*
X188290609Y-102079185D01*
X188378210Y-102210288D01*
X188378213Y-102210292D01*
X188489707Y-102321786D01*
X188489711Y-102321789D01*
X188620814Y-102409390D01*
X188620827Y-102409397D01*
X188708230Y-102445599D01*
X188766503Y-102469737D01*
X188781871Y-102472793D01*
X188843782Y-102505177D01*
X188845362Y-102506730D01*
X192617049Y-106278416D01*
X192721584Y-106382951D01*
X192721587Y-106382953D01*
X192721588Y-106382954D01*
X192844503Y-106465083D01*
X192844506Y-106465085D01*
X192894665Y-106485861D01*
X192901080Y-106488518D01*
X192981088Y-106521659D01*
X193097241Y-106544763D01*
X193120380Y-106549365D01*
X193126081Y-106550500D01*
X193126082Y-106550500D01*
X193126083Y-106550500D01*
X193273918Y-106550500D01*
X193874582Y-106550500D01*
X193941621Y-106570185D01*
X193974900Y-106601615D01*
X194008028Y-106647212D01*
X194008032Y-106647217D01*
X194152786Y-106791971D01*
X194307749Y-106904556D01*
X194318390Y-106912287D01*
X194434607Y-106971503D01*
X194500776Y-107005218D01*
X194500778Y-107005218D01*
X194500781Y-107005220D01*
X194605137Y-107039127D01*
X194695465Y-107068477D01*
X194796557Y-107084488D01*
X194897648Y-107100500D01*
X194897649Y-107100500D01*
X195102351Y-107100500D01*
X195102352Y-107100500D01*
X195304534Y-107068477D01*
X195499219Y-107005220D01*
X195681610Y-106912287D01*
X195774590Y-106844732D01*
X195847213Y-106791971D01*
X195847215Y-106791968D01*
X195847219Y-106791966D01*
X195991966Y-106647219D01*
X195991968Y-106647215D01*
X195991971Y-106647213D01*
X196066404Y-106544763D01*
X196112287Y-106481610D01*
X196205220Y-106299219D01*
X196268477Y-106104534D01*
X196300500Y-105902352D01*
X196300500Y-105697648D01*
X196268477Y-105495466D01*
X196205220Y-105300781D01*
X196205218Y-105300778D01*
X196205218Y-105300776D01*
X196171503Y-105234607D01*
X196112287Y-105118390D01*
X196062236Y-105049500D01*
X195991971Y-104952786D01*
X195847213Y-104808028D01*
X195681613Y-104687715D01*
X195681612Y-104687714D01*
X195681610Y-104687713D01*
X195624653Y-104658691D01*
X195499223Y-104594781D01*
X195304534Y-104531522D01*
X195129995Y-104503878D01*
X195102352Y-104499500D01*
X194897648Y-104499500D01*
X194873329Y-104503351D01*
X194695465Y-104531522D01*
X194500776Y-104594781D01*
X194318386Y-104687715D01*
X194152786Y-104808028D01*
X194008032Y-104952782D01*
X194008028Y-104952787D01*
X193974900Y-104998385D01*
X193919571Y-105041051D01*
X193874582Y-105049500D01*
X193562229Y-105049500D01*
X193495190Y-105029815D01*
X193474548Y-105013181D01*
X189578421Y-101117052D01*
X189578414Y-101117046D01*
X189504729Y-101067812D01*
X189504729Y-101067813D01*
X189455495Y-101034916D01*
X189440461Y-101028688D01*
X189419028Y-101017232D01*
X189399731Y-101004338D01*
X189379186Y-100990610D01*
X189379180Y-100990607D01*
X189379179Y-100990606D01*
X189379176Y-100990605D01*
X189379171Y-100990602D01*
X189233501Y-100930264D01*
X189233489Y-100930261D01*
X189078845Y-100899500D01*
X189078842Y-100899500D01*
X188921158Y-100899500D01*
X188921155Y-100899500D01*
X188766510Y-100930261D01*
X188766498Y-100930264D01*
X188620827Y-100990602D01*
X188620814Y-100990609D01*
X188489711Y-101078210D01*
X188489707Y-101078213D01*
X188378213Y-101189707D01*
X188378210Y-101189711D01*
X188290609Y-101320814D01*
X188290602Y-101320827D01*
X188230264Y-101466498D01*
X188230261Y-101466510D01*
X188199500Y-101621153D01*
X170893500Y-101621153D01*
X170893500Y-98757154D01*
X170913185Y-98690115D01*
X170965989Y-98644360D01*
X171035147Y-98634416D01*
X171098703Y-98663441D01*
X171115877Y-98681669D01*
X171117478Y-98683756D01*
X171117480Y-98683759D01*
X171229284Y-98795563D01*
X171229285Y-98795564D01*
X171816241Y-99382520D01*
X171816243Y-99382521D01*
X171816247Y-99382524D01*
X171953166Y-99461573D01*
X171953173Y-99461577D01*
X172105900Y-99502501D01*
X172105902Y-99502501D01*
X172271611Y-99502501D01*
X172271627Y-99502500D01*
X180711331Y-99502500D01*
X180711347Y-99502501D01*
X180718943Y-99502501D01*
X180877054Y-99502501D01*
X180877057Y-99502501D01*
X181029785Y-99461577D01*
X181091466Y-99425965D01*
X181166716Y-99382520D01*
X181278520Y-99270716D01*
X181278520Y-99270714D01*
X181288724Y-99260511D01*
X181288727Y-99260506D01*
X183614662Y-96934572D01*
X183675983Y-96901089D01*
X183678150Y-96900638D01*
X183736085Y-96889113D01*
X183833497Y-96869737D01*
X183979179Y-96809394D01*
X184110289Y-96721789D01*
X184221789Y-96610289D01*
X184309394Y-96479179D01*
X184369737Y-96333497D01*
X184400500Y-96178842D01*
X184400500Y-96021158D01*
X184400500Y-96021155D01*
X184400499Y-96021153D01*
X184394251Y-95989744D01*
X184369737Y-95866503D01*
X184327421Y-95764342D01*
X184309397Y-95720827D01*
X184309390Y-95720814D01*
X184269869Y-95661667D01*
X184227092Y-95597648D01*
X185779500Y-95597648D01*
X185779500Y-95802352D01*
X185782530Y-95821480D01*
X185811522Y-96004534D01*
X185874781Y-96199223D01*
X185938691Y-96324653D01*
X185967431Y-96381057D01*
X185967715Y-96381613D01*
X186088028Y-96547213D01*
X186232786Y-96691971D01*
X186383649Y-96801577D01*
X186398390Y-96812287D01*
X186511138Y-96869735D01*
X186580776Y-96905218D01*
X186580778Y-96905218D01*
X186580781Y-96905220D01*
X186671123Y-96934574D01*
X186775465Y-96968477D01*
X186876557Y-96984488D01*
X186977648Y-97000500D01*
X186977649Y-97000500D01*
X187182351Y-97000500D01*
X187182352Y-97000500D01*
X187384534Y-96968477D01*
X187579219Y-96905220D01*
X187761610Y-96812287D01*
X187886175Y-96721786D01*
X187927213Y-96691971D01*
X187927215Y-96691968D01*
X187927219Y-96691966D01*
X188071966Y-96547219D01*
X188071968Y-96547215D01*
X188071971Y-96547213D01*
X188163095Y-96421789D01*
X188192287Y-96381610D01*
X188285220Y-96199219D01*
X188348477Y-96004534D01*
X188380500Y-95802352D01*
X188380500Y-95597648D01*
X188361583Y-95478210D01*
X188348477Y-95395465D01*
X188307625Y-95269737D01*
X188285220Y-95200781D01*
X188285218Y-95200778D01*
X188285218Y-95200776D01*
X188251503Y-95134607D01*
X188192287Y-95018390D01*
X188164772Y-94980518D01*
X188071971Y-94852786D01*
X187927213Y-94708028D01*
X187761612Y-94587714D01*
X187579223Y-94494781D01*
X187384534Y-94431522D01*
X187209995Y-94403878D01*
X187182352Y-94399500D01*
X186977648Y-94399500D01*
X186953329Y-94403351D01*
X186775465Y-94431522D01*
X186580776Y-94494781D01*
X186398388Y-94587714D01*
X186232786Y-94708028D01*
X186088028Y-94852786D01*
X185967715Y-95018386D01*
X185874781Y-95200776D01*
X185811522Y-95395465D01*
X185784434Y-95566498D01*
X185779500Y-95597648D01*
X184227092Y-95597648D01*
X184221789Y-95589711D01*
X184221786Y-95589707D01*
X184110292Y-95478213D01*
X184110288Y-95478210D01*
X183979185Y-95390609D01*
X183979172Y-95390602D01*
X183833501Y-95330264D01*
X183833489Y-95330261D01*
X183678845Y-95299500D01*
X183678842Y-95299500D01*
X183521158Y-95299500D01*
X183521155Y-95299500D01*
X183366510Y-95330261D01*
X183366498Y-95330264D01*
X183220827Y-95390602D01*
X183220814Y-95390609D01*
X183089711Y-95478210D01*
X183089707Y-95478213D01*
X182978213Y-95589707D01*
X182978210Y-95589711D01*
X182890609Y-95720814D01*
X182890602Y-95720827D01*
X182830264Y-95866498D01*
X182830261Y-95866508D01*
X182799361Y-96021850D01*
X182766976Y-96083761D01*
X182765425Y-96085339D01*
X180585584Y-98265181D01*
X180524261Y-98298666D01*
X180497903Y-98301500D01*
X174023500Y-98301500D01*
X173956461Y-98281815D01*
X173910706Y-98229011D01*
X173899500Y-98177500D01*
X173899500Y-97659096D01*
X173919185Y-97592057D01*
X173935814Y-97571420D01*
X184688687Y-86818546D01*
X184708367Y-86807800D01*
X184725389Y-86793192D01*
X184738442Y-86791378D01*
X184750008Y-86785063D01*
X184772378Y-86786662D01*
X184794594Y-86783576D01*
X184806554Y-86789106D01*
X184819700Y-86790047D01*
X184837655Y-86803488D01*
X184858012Y-86812902D01*
X184865084Y-86824022D01*
X184875633Y-86831919D01*
X184883470Y-86852932D01*
X184895507Y-86871858D01*
X184896762Y-86888568D01*
X184900050Y-86897383D01*
X184900365Y-86906816D01*
X184900312Y-86917907D01*
X184899499Y-86920943D01*
X184899499Y-87079057D01*
X184899500Y-87079060D01*
X184899500Y-87089434D01*
X184899500Y-92320234D01*
X184879815Y-92387273D01*
X184878602Y-92389125D01*
X184790609Y-92520814D01*
X184790602Y-92520827D01*
X184730264Y-92666498D01*
X184730261Y-92666510D01*
X184699500Y-92821153D01*
X184699500Y-92978846D01*
X184730261Y-93133489D01*
X184730264Y-93133501D01*
X184790602Y-93279172D01*
X184790609Y-93279185D01*
X184878210Y-93410288D01*
X184878213Y-93410292D01*
X184989707Y-93521786D01*
X184989711Y-93521789D01*
X185120814Y-93609390D01*
X185120827Y-93609397D01*
X185266498Y-93669735D01*
X185266503Y-93669737D01*
X185416131Y-93699500D01*
X185421153Y-93700499D01*
X185421156Y-93700500D01*
X185421158Y-93700500D01*
X185578844Y-93700500D01*
X185578845Y-93700499D01*
X185733497Y-93669737D01*
X185879179Y-93609394D01*
X186010289Y-93521789D01*
X186121789Y-93410289D01*
X186209394Y-93279179D01*
X186269737Y-93133497D01*
X186300500Y-92978842D01*
X186300500Y-92821158D01*
X186300500Y-92821155D01*
X186300499Y-92821153D01*
X186298338Y-92810289D01*
X186269737Y-92666503D01*
X186229986Y-92570535D01*
X186209397Y-92520827D01*
X186209390Y-92520814D01*
X186121398Y-92389125D01*
X186115747Y-92371078D01*
X186105523Y-92355169D01*
X186101071Y-92324207D01*
X186100520Y-92322447D01*
X186100500Y-92320234D01*
X186100500Y-92139222D01*
X186120185Y-92072183D01*
X186172989Y-92026428D01*
X186242147Y-92016484D01*
X186297385Y-92038904D01*
X186378476Y-92097819D01*
X186398390Y-92112287D01*
X186489581Y-92158751D01*
X186580776Y-92205218D01*
X186580778Y-92205218D01*
X186580781Y-92205220D01*
X186660998Y-92231284D01*
X186775465Y-92268477D01*
X186876557Y-92284488D01*
X186977648Y-92300500D01*
X186977649Y-92300500D01*
X187182351Y-92300500D01*
X187182352Y-92300500D01*
X187384534Y-92268477D01*
X187579219Y-92205220D01*
X187761610Y-92112287D01*
X187869892Y-92033616D01*
X187927213Y-91991971D01*
X187927215Y-91991968D01*
X187927219Y-91991966D01*
X188071966Y-91847219D01*
X188071968Y-91847215D01*
X188071971Y-91847213D01*
X188159183Y-91727174D01*
X188192287Y-91681610D01*
X188285220Y-91499219D01*
X188348477Y-91304534D01*
X188380500Y-91102352D01*
X188380500Y-90897648D01*
X188368332Y-90820821D01*
X188348477Y-90695465D01*
X188310379Y-90578213D01*
X188285220Y-90500781D01*
X188285218Y-90500778D01*
X188285218Y-90500776D01*
X188237103Y-90406346D01*
X188192287Y-90318390D01*
X188160092Y-90274077D01*
X188071971Y-90152786D01*
X187927213Y-90008028D01*
X187761610Y-89887712D01*
X187748200Y-89880879D01*
X187697406Y-89832903D01*
X187680500Y-89770397D01*
X187680500Y-88811941D01*
X187700185Y-88744902D01*
X187752989Y-88699147D01*
X187822147Y-88689203D01*
X187885703Y-88718228D01*
X187888165Y-88720521D01*
X187889711Y-88721789D01*
X188020814Y-88809390D01*
X188020827Y-88809397D01*
X188166498Y-88869735D01*
X188166503Y-88869737D01*
X188321153Y-88900499D01*
X188321156Y-88900500D01*
X188321158Y-88900500D01*
X188478844Y-88900500D01*
X188478845Y-88900499D01*
X188633497Y-88869737D01*
X188779179Y-88809394D01*
X188910289Y-88721789D01*
X189021789Y-88610289D01*
X189109394Y-88479179D01*
X189119191Y-88455524D01*
X189146069Y-88415297D01*
X190140213Y-87421153D01*
X191599500Y-87421153D01*
X191599500Y-87578846D01*
X191630261Y-87733489D01*
X191630264Y-87733501D01*
X191690602Y-87879172D01*
X191690609Y-87879185D01*
X191778602Y-88010874D01*
X191799480Y-88077551D01*
X191799500Y-88079765D01*
X191799500Y-90213330D01*
X191799499Y-90213348D01*
X191799499Y-90379054D01*
X191799498Y-90379054D01*
X191833515Y-90506003D01*
X191840423Y-90531785D01*
X191850651Y-90549500D01*
X191919477Y-90668712D01*
X191919481Y-90668717D01*
X192038349Y-90787585D01*
X192038355Y-90787590D01*
X194063181Y-92812416D01*
X194096666Y-92873739D01*
X194099500Y-92900097D01*
X194099500Y-94470397D01*
X194079815Y-94537436D01*
X194031800Y-94580879D01*
X194018389Y-94587712D01*
X193852786Y-94708028D01*
X193708028Y-94852786D01*
X193587715Y-95018386D01*
X193494781Y-95200776D01*
X193431522Y-95395465D01*
X193404434Y-95566498D01*
X193399500Y-95597648D01*
X193399500Y-95802352D01*
X193402530Y-95821480D01*
X193431522Y-96004534D01*
X193494781Y-96199223D01*
X193558691Y-96324653D01*
X193587431Y-96381057D01*
X193587715Y-96381613D01*
X193708028Y-96547213D01*
X193852786Y-96691971D01*
X194003649Y-96801577D01*
X194018390Y-96812287D01*
X194131138Y-96869735D01*
X194200776Y-96905218D01*
X194200778Y-96905218D01*
X194200781Y-96905220D01*
X194291123Y-96934574D01*
X194395465Y-96968477D01*
X194496557Y-96984488D01*
X194597648Y-97000500D01*
X194597649Y-97000500D01*
X194802351Y-97000500D01*
X194802352Y-97000500D01*
X195004534Y-96968477D01*
X195199219Y-96905220D01*
X195381610Y-96812287D01*
X195506175Y-96721786D01*
X195547213Y-96691971D01*
X195547215Y-96691968D01*
X195547219Y-96691966D01*
X195691966Y-96547219D01*
X195691968Y-96547215D01*
X195691971Y-96547213D01*
X195783095Y-96421789D01*
X195812287Y-96381610D01*
X195905220Y-96199219D01*
X195930457Y-96121544D01*
X195969894Y-96063870D01*
X196034252Y-96036671D01*
X196103099Y-96048585D01*
X196154575Y-96095829D01*
X196162949Y-96112410D01*
X196190604Y-96179175D01*
X196190609Y-96179185D01*
X196278210Y-96310288D01*
X196278213Y-96310292D01*
X196389707Y-96421786D01*
X196389711Y-96421789D01*
X196520814Y-96509390D01*
X196520827Y-96509397D01*
X196612139Y-96547219D01*
X196666503Y-96569737D01*
X196821153Y-96600499D01*
X196821156Y-96600500D01*
X196821158Y-96600500D01*
X196978844Y-96600500D01*
X196978845Y-96600499D01*
X197133497Y-96569737D01*
X197279179Y-96509394D01*
X197410289Y-96421789D01*
X197521789Y-96310289D01*
X197609394Y-96179179D01*
X197669737Y-96033497D01*
X197700500Y-95878842D01*
X197700500Y-95721158D01*
X197700500Y-95721155D01*
X197700499Y-95721153D01*
X197674353Y-95589711D01*
X197669737Y-95566503D01*
X197669735Y-95566498D01*
X197609397Y-95420827D01*
X197609390Y-95420814D01*
X197559217Y-95345725D01*
X197521398Y-95289125D01*
X197518535Y-95279983D01*
X201599500Y-95279983D01*
X201599500Y-97480001D01*
X201599501Y-97480018D01*
X201610000Y-97582796D01*
X201610001Y-97582799D01*
X201653692Y-97714647D01*
X201665186Y-97749334D01*
X201757288Y-97898656D01*
X201881344Y-98022712D01*
X202030666Y-98114814D01*
X202197203Y-98169999D01*
X202299991Y-98180500D01*
X204500008Y-98180499D01*
X204602797Y-98169999D01*
X204769334Y-98114814D01*
X204918656Y-98022712D01*
X205042712Y-97898656D01*
X205134814Y-97749334D01*
X205189999Y-97582797D01*
X205200500Y-97480009D01*
X205200499Y-95279992D01*
X205199451Y-95269737D01*
X205189999Y-95177203D01*
X205189998Y-95177200D01*
X205134814Y-95010666D01*
X205042712Y-94861344D01*
X204918656Y-94737288D01*
X204769334Y-94645186D01*
X204602797Y-94590001D01*
X204602795Y-94590000D01*
X204500010Y-94579500D01*
X202299998Y-94579500D01*
X202299981Y-94579501D01*
X202197203Y-94590000D01*
X202197200Y-94590001D01*
X202030668Y-94645185D01*
X202030663Y-94645187D01*
X201881342Y-94737289D01*
X201757289Y-94861342D01*
X201665187Y-95010663D01*
X201665185Y-95010668D01*
X201658692Y-95030263D01*
X201610001Y-95177203D01*
X201610001Y-95177204D01*
X201610000Y-95177204D01*
X201599500Y-95279983D01*
X197518535Y-95279983D01*
X197500520Y-95222447D01*
X197500500Y-95220234D01*
X197500500Y-92879765D01*
X197520185Y-92812726D01*
X197521398Y-92810874D01*
X197549277Y-92769151D01*
X197609394Y-92679179D01*
X197669737Y-92533497D01*
X197700500Y-92378842D01*
X197700500Y-92221158D01*
X197700500Y-92221155D01*
X197700499Y-92221153D01*
X197675966Y-92097819D01*
X197669737Y-92066503D01*
X197653138Y-92026428D01*
X197609397Y-91920827D01*
X197609390Y-91920814D01*
X197521789Y-91789711D01*
X197521786Y-91789707D01*
X197410292Y-91678213D01*
X197410288Y-91678210D01*
X197279185Y-91590609D01*
X197279172Y-91590602D01*
X197133501Y-91530264D01*
X197133489Y-91530261D01*
X196978845Y-91499500D01*
X196978842Y-91499500D01*
X196821158Y-91499500D01*
X196821155Y-91499500D01*
X196666510Y-91530261D01*
X196666498Y-91530264D01*
X196520827Y-91590602D01*
X196520814Y-91590609D01*
X196389711Y-91678210D01*
X196389707Y-91678213D01*
X196278213Y-91789707D01*
X196278210Y-91789711D01*
X196190609Y-91920814D01*
X196190602Y-91920827D01*
X196130264Y-92066498D01*
X196130261Y-92066510D01*
X196099500Y-92221153D01*
X196099500Y-92378846D01*
X196130261Y-92533489D01*
X196130264Y-92533501D01*
X196190602Y-92679172D01*
X196190609Y-92679185D01*
X196278602Y-92810874D01*
X196299480Y-92877551D01*
X196299500Y-92879765D01*
X196299500Y-95220234D01*
X196294172Y-95238377D01*
X196293835Y-95257287D01*
X196280334Y-95285504D01*
X196279815Y-95287273D01*
X196278602Y-95289125D01*
X196188728Y-95423630D01*
X196135116Y-95468435D01*
X196065791Y-95477142D01*
X196002763Y-95446987D01*
X195967695Y-95393058D01*
X195927625Y-95269737D01*
X195905220Y-95200781D01*
X195905218Y-95200778D01*
X195905218Y-95200776D01*
X195871503Y-95134607D01*
X195812287Y-95018390D01*
X195784772Y-94980518D01*
X195691971Y-94852786D01*
X195547213Y-94708028D01*
X195381610Y-94587712D01*
X195368200Y-94580879D01*
X195317406Y-94532903D01*
X195300500Y-94470397D01*
X195300500Y-92520946D01*
X195300500Y-92520943D01*
X195300468Y-92520821D01*
X195259577Y-92368215D01*
X195259575Y-92368212D01*
X195259575Y-92368210D01*
X195259574Y-92368209D01*
X195238228Y-92331237D01*
X195221754Y-92263337D01*
X195244606Y-92197310D01*
X195289320Y-92158751D01*
X195381346Y-92111861D01*
X195381347Y-92111861D01*
X195425921Y-92079474D01*
X194746446Y-91400000D01*
X194752661Y-91400000D01*
X194854394Y-91372741D01*
X194945606Y-91320080D01*
X195020080Y-91245606D01*
X195072741Y-91154394D01*
X195100000Y-91052661D01*
X195100000Y-91046447D01*
X195779474Y-91725921D01*
X195811859Y-91681349D01*
X195904755Y-91499031D01*
X195967990Y-91304417D01*
X195987377Y-91182014D01*
X201600000Y-91182014D01*
X201600000Y-91417985D01*
X201630799Y-91651914D01*
X201691870Y-91879837D01*
X201782160Y-92097819D01*
X201782165Y-92097828D01*
X201900144Y-92302171D01*
X201900145Y-92302172D01*
X201962721Y-92383723D01*
X202798958Y-91547487D01*
X202823978Y-91607890D01*
X202895112Y-91714351D01*
X202985649Y-91804888D01*
X203092110Y-91876022D01*
X203152511Y-91901041D01*
X202316275Y-92737277D01*
X202397827Y-92799854D01*
X202397828Y-92799855D01*
X202602171Y-92917834D01*
X202602180Y-92917839D01*
X202820163Y-93008129D01*
X202820161Y-93008129D01*
X203048085Y-93069200D01*
X203282014Y-93099999D01*
X203282029Y-93100000D01*
X203517971Y-93100000D01*
X203517985Y-93099999D01*
X203751914Y-93069200D01*
X203979837Y-93008129D01*
X204197819Y-92917839D01*
X204197828Y-92917834D01*
X204402181Y-92799850D01*
X204483723Y-92737279D01*
X204483723Y-92737276D01*
X203647487Y-91901041D01*
X203707890Y-91876022D01*
X203814351Y-91804888D01*
X203904888Y-91714351D01*
X203976022Y-91607890D01*
X204001041Y-91547488D01*
X204837276Y-92383723D01*
X204837279Y-92383723D01*
X204899850Y-92302181D01*
X205017834Y-92097828D01*
X205017839Y-92097819D01*
X205108129Y-91879837D01*
X205169200Y-91651914D01*
X205199999Y-91417985D01*
X205200000Y-91417971D01*
X205200000Y-91182028D01*
X205199999Y-91182014D01*
X205169200Y-90948085D01*
X205108129Y-90720162D01*
X205017839Y-90502180D01*
X205017834Y-90502171D01*
X204899855Y-90297828D01*
X204899854Y-90297827D01*
X204837277Y-90216275D01*
X204001041Y-91052511D01*
X203976022Y-90992110D01*
X203904888Y-90885649D01*
X203814351Y-90795112D01*
X203707890Y-90723978D01*
X203647488Y-90698958D01*
X204483723Y-89862721D01*
X204402172Y-89800145D01*
X204402171Y-89800144D01*
X204197828Y-89682165D01*
X204197819Y-89682160D01*
X203979836Y-89591870D01*
X203979838Y-89591870D01*
X203751914Y-89530799D01*
X203517985Y-89500000D01*
X203282014Y-89500000D01*
X203048085Y-89530799D01*
X202820162Y-89591870D01*
X202602180Y-89682160D01*
X202602171Y-89682165D01*
X202397828Y-89800144D01*
X202397818Y-89800150D01*
X202316275Y-89862720D01*
X202316275Y-89862721D01*
X203152512Y-90698958D01*
X203092110Y-90723978D01*
X202985649Y-90795112D01*
X202895112Y-90885649D01*
X202823978Y-90992110D01*
X202798958Y-91052511D01*
X201962721Y-90216275D01*
X201962720Y-90216275D01*
X201900150Y-90297818D01*
X201900144Y-90297828D01*
X201782165Y-90502171D01*
X201782160Y-90502180D01*
X201691870Y-90720162D01*
X201630799Y-90948085D01*
X201600000Y-91182014D01*
X195987377Y-91182014D01*
X195991091Y-91158565D01*
X196000000Y-91102317D01*
X196000000Y-90897682D01*
X195967990Y-90695582D01*
X195904755Y-90500968D01*
X195811859Y-90318650D01*
X195779474Y-90274077D01*
X195779474Y-90274076D01*
X195100000Y-90953551D01*
X195100000Y-90947339D01*
X195072741Y-90845606D01*
X195020080Y-90754394D01*
X194945606Y-90679920D01*
X194854394Y-90627259D01*
X194752661Y-90600000D01*
X194746446Y-90600000D01*
X195425921Y-89920525D01*
X195425921Y-89920522D01*
X195381359Y-89888147D01*
X195381350Y-89888141D01*
X195199031Y-89795244D01*
X195004417Y-89732009D01*
X194802317Y-89700000D01*
X194597683Y-89700000D01*
X194395582Y-89732009D01*
X194200968Y-89795244D01*
X194018644Y-89888143D01*
X193974077Y-89920523D01*
X193974077Y-89920524D01*
X194653554Y-90600000D01*
X194647339Y-90600000D01*
X194545606Y-90627259D01*
X194454394Y-90679920D01*
X194379920Y-90754394D01*
X194327259Y-90845606D01*
X194300000Y-90947339D01*
X194300000Y-90953553D01*
X193620524Y-90274077D01*
X193620523Y-90274077D01*
X193588144Y-90318644D01*
X193557525Y-90378738D01*
X193509551Y-90429534D01*
X193441730Y-90446329D01*
X193375595Y-90423792D01*
X193359359Y-90410124D01*
X193036819Y-90087584D01*
X193022115Y-90060656D01*
X193005523Y-90034838D01*
X193004631Y-90028637D01*
X193003334Y-90026261D01*
X193000500Y-89999903D01*
X193000500Y-88079765D01*
X193020185Y-88012726D01*
X193021398Y-88010874D01*
X193109390Y-87879185D01*
X193109390Y-87879184D01*
X193109394Y-87879179D01*
X193169737Y-87733497D01*
X193200500Y-87578842D01*
X193200500Y-87421158D01*
X193200500Y-87421155D01*
X193200499Y-87421153D01*
X193187127Y-87353927D01*
X193169737Y-87266503D01*
X193169735Y-87266498D01*
X193109397Y-87120827D01*
X193109390Y-87120814D01*
X193021789Y-86989711D01*
X193021786Y-86989707D01*
X192910292Y-86878213D01*
X192910288Y-86878210D01*
X192779185Y-86790609D01*
X192779172Y-86790602D01*
X192633501Y-86730264D01*
X192633489Y-86730261D01*
X192478845Y-86699500D01*
X192478842Y-86699500D01*
X192321158Y-86699500D01*
X192321155Y-86699500D01*
X192166510Y-86730261D01*
X192166498Y-86730264D01*
X192020827Y-86790602D01*
X192020814Y-86790609D01*
X191889711Y-86878210D01*
X191889707Y-86878213D01*
X191778213Y-86989707D01*
X191778210Y-86989711D01*
X191690609Y-87120814D01*
X191690602Y-87120827D01*
X191630264Y-87266498D01*
X191630261Y-87266510D01*
X191599500Y-87421153D01*
X190140213Y-87421153D01*
X190915297Y-86646069D01*
X190955524Y-86619191D01*
X190979179Y-86609394D01*
X191110289Y-86521789D01*
X191221789Y-86410289D01*
X191309394Y-86279179D01*
X191369737Y-86133497D01*
X191400500Y-85978842D01*
X191400500Y-85821158D01*
X191400500Y-85821155D01*
X191400499Y-85821153D01*
X191394423Y-85790606D01*
X191369737Y-85666503D01*
X191359150Y-85640943D01*
X191309397Y-85520827D01*
X191309390Y-85520814D01*
X191221789Y-85389711D01*
X191221786Y-85389707D01*
X191110292Y-85278213D01*
X191110288Y-85278210D01*
X190979185Y-85190609D01*
X190979172Y-85190602D01*
X190833501Y-85130264D01*
X190833489Y-85130261D01*
X190678845Y-85099500D01*
X190678842Y-85099500D01*
X190521158Y-85099500D01*
X190521155Y-85099500D01*
X190366510Y-85130261D01*
X190366498Y-85130264D01*
X190220827Y-85190602D01*
X190220814Y-85190609D01*
X190089711Y-85278210D01*
X190089707Y-85278213D01*
X189978213Y-85389707D01*
X189978207Y-85389715D01*
X189890607Y-85520818D01*
X189890606Y-85520819D01*
X189880805Y-85544480D01*
X189853927Y-85584703D01*
X188084703Y-87353927D01*
X188063323Y-87371032D01*
X188054313Y-87376732D01*
X188020821Y-87390606D01*
X187889711Y-87478211D01*
X187882443Y-87485478D01*
X187870801Y-87492845D01*
X187849919Y-87498816D01*
X187830858Y-87509225D01*
X187816991Y-87508233D01*
X187803624Y-87512056D01*
X187782829Y-87505790D01*
X187761166Y-87504241D01*
X187750035Y-87495908D01*
X187736725Y-87491898D01*
X187722619Y-87475384D01*
X187705233Y-87462369D01*
X187700374Y-87449342D01*
X187691345Y-87438772D01*
X187688406Y-87417254D01*
X187680816Y-87396905D01*
X187680500Y-87388059D01*
X187680500Y-86020097D01*
X187700185Y-85953058D01*
X187716819Y-85932416D01*
X188112327Y-85536908D01*
X188514662Y-85134572D01*
X188575983Y-85101089D01*
X188578150Y-85100638D01*
X188636085Y-85089113D01*
X188733497Y-85069737D01*
X188879179Y-85009394D01*
X189010289Y-84921789D01*
X189121789Y-84810289D01*
X189209394Y-84679179D01*
X189269737Y-84533497D01*
X189300500Y-84378842D01*
X189300500Y-84221158D01*
X189300500Y-84221155D01*
X189300499Y-84221153D01*
X189277593Y-84105998D01*
X189269737Y-84066503D01*
X189245296Y-84007496D01*
X189209397Y-83920827D01*
X189209390Y-83920814D01*
X189121789Y-83789711D01*
X189121786Y-83789707D01*
X189010292Y-83678213D01*
X189010288Y-83678210D01*
X188879185Y-83590609D01*
X188879172Y-83590602D01*
X188733501Y-83530264D01*
X188733489Y-83530261D01*
X188578845Y-83499500D01*
X188578842Y-83499500D01*
X188421158Y-83499500D01*
X188421153Y-83499500D01*
X188305997Y-83522406D01*
X188236405Y-83516179D01*
X188181228Y-83473316D01*
X188157984Y-83407426D01*
X188174052Y-83339429D01*
X188194121Y-83313112D01*
X192286080Y-79221153D01*
X194799500Y-79221153D01*
X194799500Y-79378846D01*
X194830261Y-79533489D01*
X194830264Y-79533501D01*
X194890602Y-79679172D01*
X194890609Y-79679185D01*
X194978210Y-79810288D01*
X194978213Y-79810292D01*
X195089707Y-79921786D01*
X195089711Y-79921789D01*
X195220814Y-80009390D01*
X195220827Y-80009397D01*
X195366498Y-80069735D01*
X195366503Y-80069737D01*
X195521153Y-80100499D01*
X195521156Y-80100500D01*
X195521158Y-80100500D01*
X195678844Y-80100500D01*
X195678845Y-80100499D01*
X195833497Y-80069737D01*
X195979179Y-80009394D01*
X196110289Y-79921789D01*
X196110288Y-79921789D01*
X196110873Y-79921399D01*
X196177550Y-79900521D01*
X196179764Y-79900501D01*
X196279054Y-79900501D01*
X196279057Y-79900501D01*
X196431785Y-79859577D01*
X196481904Y-79830639D01*
X196568716Y-79780520D01*
X196680520Y-79668716D01*
X196680520Y-79668714D01*
X196690728Y-79658507D01*
X196690729Y-79658504D01*
X197714662Y-78634572D01*
X197775983Y-78601089D01*
X197778150Y-78600638D01*
X197836085Y-78589113D01*
X197933497Y-78569737D01*
X198079179Y-78509394D01*
X198210289Y-78421789D01*
X198321789Y-78310289D01*
X198409394Y-78179179D01*
X198469737Y-78033497D01*
X198500500Y-77878842D01*
X198500500Y-77721158D01*
X198500500Y-77721155D01*
X198500499Y-77721153D01*
X198469738Y-77566510D01*
X198469738Y-77566508D01*
X198469737Y-77566503D01*
X198469735Y-77566498D01*
X198409397Y-77420827D01*
X198409390Y-77420814D01*
X198321789Y-77289711D01*
X198321786Y-77289707D01*
X198210292Y-77178213D01*
X198210288Y-77178210D01*
X198079185Y-77090609D01*
X198079172Y-77090602D01*
X197933501Y-77030264D01*
X197933489Y-77030261D01*
X197778845Y-76999500D01*
X197778842Y-76999500D01*
X197621158Y-76999500D01*
X197621155Y-76999500D01*
X197466510Y-77030261D01*
X197466498Y-77030264D01*
X197320827Y-77090602D01*
X197320814Y-77090609D01*
X197189711Y-77178210D01*
X197189707Y-77178213D01*
X197078213Y-77289707D01*
X197078210Y-77289711D01*
X196990609Y-77420814D01*
X196990602Y-77420827D01*
X196930264Y-77566498D01*
X196930261Y-77566508D01*
X196899361Y-77721850D01*
X196866976Y-77783761D01*
X196865425Y-77785339D01*
X196095026Y-78555737D01*
X196033703Y-78589222D01*
X195964011Y-78584238D01*
X195959893Y-78582617D01*
X195833501Y-78530264D01*
X195833489Y-78530261D01*
X195678845Y-78499500D01*
X195678842Y-78499500D01*
X195521158Y-78499500D01*
X195521155Y-78499500D01*
X195366510Y-78530261D01*
X195366498Y-78530264D01*
X195220827Y-78590602D01*
X195220814Y-78590609D01*
X195089711Y-78678210D01*
X195089707Y-78678213D01*
X194978213Y-78789707D01*
X194978210Y-78789711D01*
X194890609Y-78920814D01*
X194890602Y-78920827D01*
X194830264Y-79066498D01*
X194830261Y-79066510D01*
X194799500Y-79221153D01*
X192286080Y-79221153D01*
X197098320Y-74408913D01*
X197159642Y-74375430D01*
X197229334Y-74380414D01*
X197285267Y-74422286D01*
X197309684Y-74487750D01*
X197310000Y-74496596D01*
X197310000Y-75197844D01*
X197316401Y-75257372D01*
X197316403Y-75257379D01*
X197366645Y-75392086D01*
X197366649Y-75392093D01*
X197452809Y-75507187D01*
X197452812Y-75507190D01*
X197567906Y-75593350D01*
X197567913Y-75593354D01*
X197702620Y-75643596D01*
X197702627Y-75643598D01*
X197762155Y-75649999D01*
X197762172Y-75650000D01*
X198410000Y-75650000D01*
X198410000Y-74733012D01*
X198467007Y-74765925D01*
X198594174Y-74800000D01*
X198725826Y-74800000D01*
X198852993Y-74765925D01*
X198910000Y-74733012D01*
X198910000Y-75650000D01*
X199557828Y-75650000D01*
X199557844Y-75649999D01*
X199617372Y-75643598D01*
X199617379Y-75643596D01*
X199752086Y-75593354D01*
X199752093Y-75593350D01*
X199867187Y-75507190D01*
X199867190Y-75507187D01*
X199953350Y-75392093D01*
X199953354Y-75392086D01*
X200002422Y-75260529D01*
X200044293Y-75204595D01*
X200109757Y-75180178D01*
X200178030Y-75195030D01*
X200206285Y-75216181D01*
X200320213Y-75330109D01*
X200492179Y-75455048D01*
X200492181Y-75455049D01*
X200492184Y-75455051D01*
X200681588Y-75551557D01*
X200883757Y-75617246D01*
X201093713Y-75650500D01*
X201093714Y-75650500D01*
X201306286Y-75650500D01*
X201306287Y-75650500D01*
X201516243Y-75617246D01*
X201718412Y-75551557D01*
X201907816Y-75455051D01*
X201994471Y-75392093D01*
X202079786Y-75330109D01*
X202079788Y-75330106D01*
X202079792Y-75330104D01*
X202230104Y-75179792D01*
X202230106Y-75179788D01*
X202230109Y-75179786D01*
X202355048Y-75007820D01*
X202355047Y-75007820D01*
X202355051Y-75007816D01*
X202359514Y-74999054D01*
X202407488Y-74948259D01*
X202475308Y-74931463D01*
X202541444Y-74953999D01*
X202580486Y-74999056D01*
X202584951Y-75007820D01*
X202709890Y-75179786D01*
X202860213Y-75330109D01*
X203032179Y-75455048D01*
X203032181Y-75455049D01*
X203032184Y-75455051D01*
X203221588Y-75551557D01*
X203423757Y-75617246D01*
X203633713Y-75650500D01*
X203633714Y-75650500D01*
X203846286Y-75650500D01*
X203846287Y-75650500D01*
X204056243Y-75617246D01*
X204258412Y-75551557D01*
X204447816Y-75455051D01*
X204534471Y-75392093D01*
X204619786Y-75330109D01*
X204619788Y-75330106D01*
X204619792Y-75330104D01*
X204770104Y-75179792D01*
X204770106Y-75179788D01*
X204770109Y-75179786D01*
X204895048Y-75007820D01*
X204895047Y-75007820D01*
X204895051Y-75007816D01*
X204899514Y-74999054D01*
X204947488Y-74948259D01*
X205015308Y-74931463D01*
X205081444Y-74953999D01*
X205120486Y-74999056D01*
X205124951Y-75007820D01*
X205249890Y-75179786D01*
X205400213Y-75330109D01*
X205572179Y-75455048D01*
X205572181Y-75455049D01*
X205572184Y-75455051D01*
X205761588Y-75551557D01*
X205963757Y-75617246D01*
X206173713Y-75650500D01*
X206173714Y-75650500D01*
X206386286Y-75650500D01*
X206386287Y-75650500D01*
X206596243Y-75617246D01*
X206798412Y-75551557D01*
X206987816Y-75455051D01*
X207074471Y-75392093D01*
X207159786Y-75330109D01*
X207159788Y-75330106D01*
X207159792Y-75330104D01*
X207310104Y-75179792D01*
X207310106Y-75179788D01*
X207310109Y-75179786D01*
X207435048Y-75007820D01*
X207435047Y-75007820D01*
X207435051Y-75007816D01*
X207531557Y-74818412D01*
X207597246Y-74616243D01*
X207630500Y-74406287D01*
X207630500Y-74193713D01*
X207597246Y-73983757D01*
X207531557Y-73781588D01*
X207435051Y-73592184D01*
X207435049Y-73592181D01*
X207435048Y-73592179D01*
X207310109Y-73420213D01*
X207159786Y-73269890D01*
X206987820Y-73144951D01*
X206798414Y-73048444D01*
X206798413Y-73048443D01*
X206798412Y-73048443D01*
X206596243Y-72982754D01*
X206596241Y-72982753D01*
X206596240Y-72982753D01*
X206434957Y-72957208D01*
X206386287Y-72949500D01*
X206173713Y-72949500D01*
X206125042Y-72957208D01*
X205963760Y-72982753D01*
X205761585Y-73048444D01*
X205572179Y-73144951D01*
X205400213Y-73269890D01*
X205249890Y-73420213D01*
X205124949Y-73592182D01*
X205120484Y-73600946D01*
X205072509Y-73651742D01*
X205004688Y-73668536D01*
X204938553Y-73645998D01*
X204899516Y-73600946D01*
X204895050Y-73592182D01*
X204770109Y-73420213D01*
X204619786Y-73269890D01*
X204447820Y-73144951D01*
X204258414Y-73048444D01*
X204258413Y-73048443D01*
X204258412Y-73048443D01*
X204056243Y-72982754D01*
X204056241Y-72982753D01*
X204056240Y-72982753D01*
X203894957Y-72957208D01*
X203846287Y-72949500D01*
X203633713Y-72949500D01*
X203585042Y-72957208D01*
X203423760Y-72982753D01*
X203221585Y-73048444D01*
X203032179Y-73144951D01*
X202860213Y-73269890D01*
X202709890Y-73420213D01*
X202584949Y-73592182D01*
X202580484Y-73600946D01*
X202532509Y-73651742D01*
X202464688Y-73668536D01*
X202398553Y-73645998D01*
X202359516Y-73600946D01*
X202355050Y-73592182D01*
X202230109Y-73420213D01*
X202079786Y-73269890D01*
X201907820Y-73144951D01*
X201718414Y-73048444D01*
X201718413Y-73048443D01*
X201718412Y-73048443D01*
X201516243Y-72982754D01*
X201516241Y-72982753D01*
X201516240Y-72982753D01*
X201354957Y-72957208D01*
X201306287Y-72949500D01*
X201093713Y-72949500D01*
X201045042Y-72957208D01*
X200883760Y-72982753D01*
X200681585Y-73048444D01*
X200492179Y-73144951D01*
X200320215Y-73269889D01*
X200206285Y-73383819D01*
X200144962Y-73417303D01*
X200075270Y-73412319D01*
X200019337Y-73370447D01*
X200002422Y-73339470D01*
X199953354Y-73207913D01*
X199953350Y-73207906D01*
X199867190Y-73092812D01*
X199867187Y-73092809D01*
X199752093Y-73006649D01*
X199752086Y-73006645D01*
X199617379Y-72956403D01*
X199617372Y-72956401D01*
X199557844Y-72950000D01*
X198856597Y-72950000D01*
X198789558Y-72930315D01*
X198743803Y-72877511D01*
X198733859Y-72808353D01*
X198762884Y-72744797D01*
X198768916Y-72738319D01*
X199069416Y-72437819D01*
X199130739Y-72404334D01*
X199157097Y-72401500D01*
X199862274Y-72401500D01*
X199862290Y-72401501D01*
X199869886Y-72401501D01*
X200027997Y-72401501D01*
X200028000Y-72401501D01*
X200180728Y-72360577D01*
X200230847Y-72331639D01*
X200317659Y-72281520D01*
X200429463Y-72169716D01*
X200429463Y-72169714D01*
X200439671Y-72159507D01*
X200439672Y-72159504D01*
X204320520Y-68278659D01*
X204399577Y-68141727D01*
X204440501Y-67989000D01*
X204440501Y-67830885D01*
X204440501Y-67823290D01*
X204440500Y-67823272D01*
X204440500Y-67125718D01*
X204460185Y-67058679D01*
X204508207Y-67015233D01*
X204547815Y-66995052D01*
X204547815Y-66995051D01*
X204547816Y-66995051D01*
X204639193Y-66928661D01*
X204719786Y-66870109D01*
X204719788Y-66870106D01*
X204719792Y-66870104D01*
X204870104Y-66719792D01*
X204870106Y-66719788D01*
X204870109Y-66719786D01*
X204995048Y-66547820D01*
X204995047Y-66547820D01*
X204995051Y-66547816D01*
X204999514Y-66539054D01*
X205047488Y-66488259D01*
X205115308Y-66471463D01*
X205181444Y-66493999D01*
X205220486Y-66539056D01*
X205224951Y-66547820D01*
X205349890Y-66719786D01*
X205500213Y-66870109D01*
X205672179Y-66995048D01*
X205672181Y-66995049D01*
X205672184Y-66995051D01*
X205861588Y-67091557D01*
X206063757Y-67157246D01*
X206273713Y-67190500D01*
X206273714Y-67190500D01*
X206486286Y-67190500D01*
X206486287Y-67190500D01*
X206696243Y-67157246D01*
X206898412Y-67091557D01*
X207087816Y-66995051D01*
X207174138Y-66932335D01*
X207259786Y-66870109D01*
X207259788Y-66870106D01*
X207259792Y-66870104D01*
X207410104Y-66719792D01*
X207410106Y-66719788D01*
X207410109Y-66719786D01*
X207535048Y-66547820D01*
X207535047Y-66547820D01*
X207535051Y-66547816D01*
X207631557Y-66358412D01*
X207697246Y-66156243D01*
X207730500Y-65946287D01*
X207730500Y-65733713D01*
X207697246Y-65523757D01*
X207631557Y-65321588D01*
X207535051Y-65132184D01*
X207535049Y-65132181D01*
X207535048Y-65132179D01*
X207410109Y-64960213D01*
X207259786Y-64809890D01*
X207087817Y-64684949D01*
X207078504Y-64680204D01*
X207027707Y-64632230D01*
X207010912Y-64564409D01*
X207033449Y-64498274D01*
X207078507Y-64459232D01*
X207087555Y-64454622D01*
X207141716Y-64415270D01*
X207141717Y-64415270D01*
X206509408Y-63782962D01*
X206572993Y-63765925D01*
X206687007Y-63700099D01*
X206780099Y-63607007D01*
X206845925Y-63492993D01*
X206862962Y-63429409D01*
X207495270Y-64061717D01*
X207495270Y-64061716D01*
X207534622Y-64007554D01*
X207631095Y-63818217D01*
X207696757Y-63616130D01*
X207696757Y-63616127D01*
X207730000Y-63406246D01*
X207730000Y-63193753D01*
X207696757Y-62983872D01*
X207696757Y-62983869D01*
X207631095Y-62781782D01*
X207534624Y-62592449D01*
X207495270Y-62538282D01*
X207495269Y-62538282D01*
X206862962Y-63170590D01*
X206845925Y-63107007D01*
X206780099Y-62992993D01*
X206687007Y-62899901D01*
X206572993Y-62834075D01*
X206509409Y-62817037D01*
X207141716Y-62184728D01*
X207087550Y-62145375D01*
X206898217Y-62048904D01*
X206696129Y-61983242D01*
X206486246Y-61950000D01*
X206273754Y-61950000D01*
X206063872Y-61983242D01*
X206063869Y-61983242D01*
X205861782Y-62048904D01*
X205672439Y-62145380D01*
X205618282Y-62184727D01*
X205618282Y-62184728D01*
X206250591Y-62817037D01*
X206187007Y-62834075D01*
X206072993Y-62899901D01*
X205979901Y-62992993D01*
X205914075Y-63107007D01*
X205897037Y-63170591D01*
X205264728Y-62538282D01*
X205264727Y-62538282D01*
X205225380Y-62592440D01*
X205225376Y-62592446D01*
X205220760Y-62601505D01*
X205172781Y-62652297D01*
X205104959Y-62669087D01*
X205038826Y-62646543D01*
X204999794Y-62601493D01*
X204995051Y-62592184D01*
X204995049Y-62592181D01*
X204995048Y-62592179D01*
X204870109Y-62420213D01*
X204719786Y-62269890D01*
X204547820Y-62144951D01*
X204358414Y-62048444D01*
X204358413Y-62048443D01*
X204358412Y-62048443D01*
X204156243Y-61982754D01*
X204156241Y-61982753D01*
X204156240Y-61982753D01*
X203994957Y-61957208D01*
X203946287Y-61949500D01*
X203733713Y-61949500D01*
X203685042Y-61957208D01*
X203523760Y-61982753D01*
X203321585Y-62048444D01*
X203132179Y-62144951D01*
X202960213Y-62269890D01*
X202809890Y-62420213D01*
X202684949Y-62592182D01*
X202680484Y-62600946D01*
X202632509Y-62651742D01*
X202564688Y-62668536D01*
X202498553Y-62645998D01*
X202459516Y-62600946D01*
X202455050Y-62592182D01*
X202330109Y-62420213D01*
X202179786Y-62269890D01*
X202007820Y-62144951D01*
X201818414Y-62048444D01*
X201818413Y-62048443D01*
X201818412Y-62048443D01*
X201616243Y-61982754D01*
X201616241Y-61982753D01*
X201616240Y-61982753D01*
X201454957Y-61957208D01*
X201406287Y-61949500D01*
X201193713Y-61949500D01*
X201145042Y-61957208D01*
X200983760Y-61982753D01*
X200781585Y-62048444D01*
X200592179Y-62144951D01*
X200420213Y-62269890D01*
X200269890Y-62420213D01*
X200144951Y-62592179D01*
X200048444Y-62781585D01*
X199982753Y-62983760D01*
X199949500Y-63193713D01*
X199949500Y-63406286D01*
X199982735Y-63616127D01*
X199982754Y-63616243D01*
X200021072Y-63734174D01*
X200048444Y-63818414D01*
X200094195Y-63908205D01*
X200107091Y-63976874D01*
X200080815Y-64041615D01*
X200023709Y-64081872D01*
X199983710Y-64088500D01*
X194699664Y-64088500D01*
X194692059Y-64088499D01*
X194692057Y-64088499D01*
X194674495Y-64088499D01*
X194625282Y-64074047D01*
X194607461Y-64068814D01*
X194607460Y-64068813D01*
X194607456Y-64068812D01*
X194575875Y-64032362D01*
X194561706Y-64016010D01*
X194561705Y-64016007D01*
X194561704Y-64016006D01*
X194561701Y-64015990D01*
X194550500Y-63964499D01*
X194550499Y-62902129D01*
X194550498Y-62902123D01*
X194550497Y-62902116D01*
X194544091Y-62842517D01*
X194542536Y-62838349D01*
X194493797Y-62707671D01*
X194493793Y-62707664D01*
X194407547Y-62592455D01*
X194407544Y-62592452D01*
X194292335Y-62506206D01*
X194292328Y-62506202D01*
X194157482Y-62455908D01*
X194157483Y-62455908D01*
X194097883Y-62449501D01*
X194097881Y-62449500D01*
X194097873Y-62449500D01*
X194097864Y-62449500D01*
X192302129Y-62449500D01*
X192302123Y-62449501D01*
X192242516Y-62455908D01*
X192107671Y-62506202D01*
X192107664Y-62506206D01*
X191992455Y-62592452D01*
X191992452Y-62592455D01*
X191906206Y-62707664D01*
X191906202Y-62707671D01*
X191855908Y-62842517D01*
X191849739Y-62899901D01*
X191849500Y-62902127D01*
X191849500Y-63616243D01*
X191849501Y-64226500D01*
X191829816Y-64293539D01*
X191777013Y-64339294D01*
X191725501Y-64350500D01*
X187574500Y-64350500D01*
X187507461Y-64330815D01*
X187461706Y-64278011D01*
X187450500Y-64226500D01*
X187450499Y-62902129D01*
X187450498Y-62902123D01*
X187450497Y-62902116D01*
X187444091Y-62842517D01*
X187442536Y-62838349D01*
X187393797Y-62707671D01*
X187393793Y-62707664D01*
X187307547Y-62592455D01*
X187307544Y-62592452D01*
X187192335Y-62506206D01*
X187192328Y-62506202D01*
X187057482Y-62455908D01*
X187057483Y-62455908D01*
X186997883Y-62449501D01*
X186997881Y-62449500D01*
X186997873Y-62449500D01*
X186997864Y-62449500D01*
X185202129Y-62449500D01*
X185202123Y-62449501D01*
X185142516Y-62455908D01*
X185007671Y-62506202D01*
X185007664Y-62506206D01*
X184892455Y-62592452D01*
X184892452Y-62592455D01*
X184806206Y-62707664D01*
X184806202Y-62707671D01*
X184755908Y-62842517D01*
X184749739Y-62899901D01*
X184749500Y-62902127D01*
X184749500Y-63616243D01*
X184749501Y-64226500D01*
X184729816Y-64293539D01*
X184677013Y-64339294D01*
X184625501Y-64350500D01*
X180574499Y-64350500D01*
X180507460Y-64330815D01*
X180461705Y-64278011D01*
X180450499Y-64226500D01*
X180450499Y-62902129D01*
X180450498Y-62902123D01*
X180450497Y-62902116D01*
X180444091Y-62842517D01*
X180442536Y-62838349D01*
X180393797Y-62707671D01*
X180393793Y-62707664D01*
X180307547Y-62592455D01*
X180307544Y-62592452D01*
X180192335Y-62506206D01*
X180192328Y-62506202D01*
X180057482Y-62455908D01*
X180057483Y-62455908D01*
X179997883Y-62449501D01*
X179997881Y-62449500D01*
X179997873Y-62449500D01*
X179997864Y-62449500D01*
X178202129Y-62449500D01*
X178202123Y-62449501D01*
X178142516Y-62455908D01*
X178007671Y-62506202D01*
X178007664Y-62506206D01*
X177892455Y-62592452D01*
X177892452Y-62592455D01*
X177806206Y-62707664D01*
X177806202Y-62707671D01*
X177755908Y-62842517D01*
X177749739Y-62899901D01*
X177749501Y-62902123D01*
X177749500Y-62902135D01*
X177749500Y-64697870D01*
X177749501Y-64697876D01*
X177755908Y-64757483D01*
X177806202Y-64892328D01*
X177806206Y-64892335D01*
X177892452Y-65007544D01*
X177892455Y-65007547D01*
X178007664Y-65093793D01*
X178007671Y-65093797D01*
X178142517Y-65144091D01*
X178142516Y-65144091D01*
X178149444Y-65144835D01*
X178202127Y-65150500D01*
X179549902Y-65150499D01*
X179579342Y-65159143D01*
X179609329Y-65165667D01*
X179614344Y-65169421D01*
X179616941Y-65170184D01*
X179637583Y-65186818D01*
X179766139Y-65315374D01*
X179766149Y-65315385D01*
X179770479Y-65319715D01*
X179770480Y-65319716D01*
X179882284Y-65431520D01*
X179951158Y-65471284D01*
X180019215Y-65510577D01*
X180171943Y-65551501D01*
X180171946Y-65551501D01*
X180337654Y-65551501D01*
X180337670Y-65551500D01*
X194264331Y-65551500D01*
X194264347Y-65551501D01*
X194271943Y-65551501D01*
X194430054Y-65551501D01*
X194430057Y-65551501D01*
X194582785Y-65510577D01*
X194650842Y-65471284D01*
X194719716Y-65431520D01*
X194825417Y-65325819D01*
X194886740Y-65292334D01*
X194913098Y-65289500D01*
X199825500Y-65289500D01*
X199892539Y-65309185D01*
X199938294Y-65361989D01*
X199949500Y-65413500D01*
X199949500Y-66737870D01*
X199949501Y-66737876D01*
X199955908Y-66797483D01*
X200006202Y-66932328D01*
X200006206Y-66932335D01*
X200092452Y-67047544D01*
X200092455Y-67047547D01*
X200207664Y-67133793D01*
X200207671Y-67133797D01*
X200252618Y-67150561D01*
X200342517Y-67184091D01*
X200402127Y-67190500D01*
X200575500Y-67190499D01*
X200642539Y-67210183D01*
X200688294Y-67262987D01*
X200699500Y-67314499D01*
X200699500Y-68399903D01*
X200679815Y-68466942D01*
X200663181Y-68487584D01*
X193070301Y-76080463D01*
X193008978Y-76113948D01*
X192939286Y-76108964D01*
X192883353Y-76067092D01*
X192858936Y-76001628D01*
X192873788Y-75933355D01*
X192879519Y-75923890D01*
X192909389Y-75879186D01*
X192909394Y-75879179D01*
X192969737Y-75733497D01*
X193000500Y-75578842D01*
X193000500Y-75421158D01*
X193000500Y-75421155D01*
X193000499Y-75421153D01*
X192969737Y-75266503D01*
X192937048Y-75187583D01*
X192909397Y-75120827D01*
X192909390Y-75120814D01*
X192821789Y-74989711D01*
X192821786Y-74989707D01*
X192710292Y-74878213D01*
X192710288Y-74878210D01*
X192579185Y-74790609D01*
X192579172Y-74790602D01*
X192433501Y-74730264D01*
X192433489Y-74730261D01*
X192278845Y-74699500D01*
X192278842Y-74699500D01*
X192121158Y-74699500D01*
X192121155Y-74699500D01*
X191966510Y-74730261D01*
X191966498Y-74730264D01*
X191820827Y-74790602D01*
X191820814Y-74790609D01*
X191689711Y-74878210D01*
X191689707Y-74878213D01*
X191578213Y-74989707D01*
X191578210Y-74989711D01*
X191490609Y-75120814D01*
X191490602Y-75120827D01*
X191430264Y-75266498D01*
X191430261Y-75266508D01*
X191399361Y-75421850D01*
X191366976Y-75483761D01*
X191365425Y-75485339D01*
X180588584Y-86262181D01*
X180527261Y-86295666D01*
X180500903Y-86298500D01*
X176365997Y-86298500D01*
X176325076Y-86309464D01*
X176325076Y-86309465D01*
X176287808Y-86319451D01*
X176213271Y-86339423D01*
X176213266Y-86339426D01*
X176076347Y-86418475D01*
X176076339Y-86418481D01*
X169812481Y-92682339D01*
X169812480Y-92682341D01*
X169780764Y-92737276D01*
X169762361Y-92769151D01*
X169762359Y-92769153D01*
X169733425Y-92819266D01*
X169733424Y-92819267D01*
X169729303Y-92834646D01*
X169692499Y-92972000D01*
X169692499Y-92972002D01*
X169692499Y-93140103D01*
X169692500Y-93140116D01*
X169692500Y-115451280D01*
X169692499Y-115451298D01*
X169692499Y-115617004D01*
X169692498Y-115617004D01*
X169733423Y-115769735D01*
X169762358Y-115819850D01*
X169762359Y-115819854D01*
X169762360Y-115819854D01*
X169812479Y-115906664D01*
X169812481Y-115906667D01*
X169931349Y-116025535D01*
X169931355Y-116025540D01*
X176894634Y-122988819D01*
X176928119Y-123050142D01*
X176923135Y-123119834D01*
X176881263Y-123175767D01*
X176815799Y-123200184D01*
X176806953Y-123200500D01*
X169220784Y-123200500D01*
X169153745Y-123180815D01*
X169107990Y-123128011D01*
X169098046Y-123058853D01*
X169102851Y-123038187D01*
X169163553Y-122851368D01*
X169200500Y-122618097D01*
X169200500Y-122381902D01*
X169163553Y-122148631D01*
X169090566Y-121924003D01*
X168983342Y-121713566D01*
X168844517Y-121522490D01*
X168677510Y-121355483D01*
X168581971Y-121286070D01*
X168486431Y-121216655D01*
X168368204Y-121156415D01*
X168317409Y-121108441D01*
X168300500Y-121045931D01*
X168300500Y-91761426D01*
X168320185Y-91694387D01*
X168355607Y-91658325D01*
X168410289Y-91621789D01*
X168521789Y-91510289D01*
X168609394Y-91379179D01*
X168669737Y-91233497D01*
X168700500Y-91078842D01*
X168700500Y-90921158D01*
X168700500Y-90921155D01*
X168700499Y-90921153D01*
X168695830Y-90897682D01*
X168669737Y-90766503D01*
X168664721Y-90754394D01*
X168609397Y-90620827D01*
X168609390Y-90620814D01*
X168521789Y-90489711D01*
X168521786Y-90489707D01*
X168410292Y-90378213D01*
X168410288Y-90378210D01*
X168279185Y-90290609D01*
X168279172Y-90290602D01*
X168133501Y-90230264D01*
X168133489Y-90230261D01*
X167978845Y-90199500D01*
X167978842Y-90199500D01*
X167821158Y-90199500D01*
X167821155Y-90199500D01*
X167666510Y-90230261D01*
X167666498Y-90230264D01*
X167520827Y-90290602D01*
X167520814Y-90290609D01*
X167389711Y-90378210D01*
X167389707Y-90378213D01*
X167278213Y-90489707D01*
X167278210Y-90489711D01*
X167190609Y-90620814D01*
X167190602Y-90620827D01*
X167130264Y-90766498D01*
X167130261Y-90766510D01*
X167099500Y-90921153D01*
X167099500Y-91078844D01*
X167100097Y-91084907D01*
X167099724Y-91084943D01*
X167101218Y-91100847D01*
X167101089Y-91115008D01*
X167099499Y-91120943D01*
X167099499Y-91279057D01*
X167099500Y-91279060D01*
X167099500Y-91289637D01*
X167099500Y-93751675D01*
X167079815Y-93818714D01*
X167027011Y-93864469D01*
X166957853Y-93874413D01*
X166894297Y-93845388D01*
X166885376Y-93835920D01*
X166885266Y-93836031D01*
X166879521Y-93830286D01*
X166879520Y-93830284D01*
X166767716Y-93718480D01*
X166767715Y-93718479D01*
X166763385Y-93714149D01*
X166763374Y-93714139D01*
X164234574Y-91185339D01*
X164201089Y-91124016D01*
X164200638Y-91121849D01*
X164176400Y-90999999D01*
X164169737Y-90966503D01*
X164169735Y-90966498D01*
X164109397Y-90820827D01*
X164109390Y-90820814D01*
X164021789Y-90689711D01*
X164021786Y-90689707D01*
X163910292Y-90578213D01*
X163910288Y-90578210D01*
X163779185Y-90490609D01*
X163779172Y-90490602D01*
X163633501Y-90430264D01*
X163633489Y-90430261D01*
X163478845Y-90399500D01*
X163478842Y-90399500D01*
X163321158Y-90399500D01*
X163321153Y-90399500D01*
X163255431Y-90412573D01*
X163185839Y-90406346D01*
X163130662Y-90363482D01*
X163116679Y-90338409D01*
X163109394Y-90320821D01*
X163109393Y-90320819D01*
X163109392Y-90320817D01*
X163021789Y-90189711D01*
X163021786Y-90189707D01*
X162910292Y-90078213D01*
X162910288Y-90078210D01*
X162779185Y-89990609D01*
X162779172Y-89990602D01*
X162633501Y-89930264D01*
X162633489Y-89930261D01*
X162478845Y-89899500D01*
X162478842Y-89899500D01*
X162321158Y-89899500D01*
X162321155Y-89899500D01*
X162166510Y-89930261D01*
X162166498Y-89930264D01*
X162020827Y-89990602D01*
X162020814Y-89990609D01*
X161889711Y-90078210D01*
X161889707Y-90078213D01*
X161778213Y-90189707D01*
X161778210Y-90189711D01*
X161690609Y-90320814D01*
X161690602Y-90320827D01*
X161630264Y-90466498D01*
X161630261Y-90466510D01*
X161599500Y-90621153D01*
X161599500Y-90778846D01*
X161630261Y-90933489D01*
X161630264Y-90933501D01*
X161690602Y-91079172D01*
X161690609Y-91079185D01*
X161761540Y-91185339D01*
X161775767Y-91206632D01*
X161778602Y-91210874D01*
X161799480Y-91277551D01*
X161799500Y-91279765D01*
X161799500Y-98745431D01*
X161779815Y-98812470D01*
X161727011Y-98858225D01*
X161657853Y-98868169D01*
X161619205Y-98855916D01*
X161499223Y-98794781D01*
X161304534Y-98731522D01*
X161129995Y-98703878D01*
X161102352Y-98699500D01*
X160897648Y-98699500D01*
X160873329Y-98703351D01*
X160695465Y-98731522D01*
X160500776Y-98794781D01*
X160318386Y-98887715D01*
X160152786Y-99008028D01*
X160008028Y-99152786D01*
X159887715Y-99318386D01*
X159794781Y-99500776D01*
X159731522Y-99695465D01*
X159699500Y-99897648D01*
X120600500Y-99897648D01*
X120600500Y-96801577D01*
X155849500Y-96801577D01*
X155849500Y-96998422D01*
X155880290Y-97192826D01*
X155941117Y-97380029D01*
X156030476Y-97555405D01*
X156146172Y-97714646D01*
X156285354Y-97853828D01*
X156444595Y-97969524D01*
X156527455Y-98011743D01*
X156619970Y-98058882D01*
X156619972Y-98058882D01*
X156619975Y-98058884D01*
X156720317Y-98091487D01*
X156807173Y-98119709D01*
X157001578Y-98150500D01*
X157001583Y-98150500D01*
X157198422Y-98150500D01*
X157392826Y-98119709D01*
X157407897Y-98114812D01*
X157580025Y-98058884D01*
X157755405Y-97969524D01*
X157914646Y-97853828D01*
X158053828Y-97714646D01*
X158169524Y-97555405D01*
X158258884Y-97380025D01*
X158319709Y-97192826D01*
X158350500Y-96998422D01*
X158350500Y-96801577D01*
X158319709Y-96607173D01*
X158287937Y-96509390D01*
X158258884Y-96419975D01*
X158258882Y-96419972D01*
X158258882Y-96419970D01*
X158202998Y-96310292D01*
X158169524Y-96244595D01*
X158053828Y-96085354D01*
X157914646Y-95946172D01*
X157755405Y-95830476D01*
X157737747Y-95821479D01*
X157580029Y-95741117D01*
X157392826Y-95680290D01*
X157198422Y-95649500D01*
X157198417Y-95649500D01*
X157001583Y-95649500D01*
X157001578Y-95649500D01*
X156807173Y-95680290D01*
X156619970Y-95741117D01*
X156444594Y-95830476D01*
X156378020Y-95878846D01*
X156285354Y-95946172D01*
X156285352Y-95946174D01*
X156285351Y-95946174D01*
X156146174Y-96085351D01*
X156146174Y-96085352D01*
X156146172Y-96085354D01*
X156126515Y-96112410D01*
X156030476Y-96244594D01*
X155941117Y-96419970D01*
X155880290Y-96607173D01*
X155849500Y-96801577D01*
X120600500Y-96801577D01*
X120600500Y-94421153D01*
X151399500Y-94421153D01*
X151399500Y-94578846D01*
X151430261Y-94733489D01*
X151430264Y-94733501D01*
X151490602Y-94879172D01*
X151490609Y-94879185D01*
X151578210Y-95010288D01*
X151578213Y-95010292D01*
X151689707Y-95121786D01*
X151689711Y-95121789D01*
X151820814Y-95209390D01*
X151820827Y-95209397D01*
X151963328Y-95268422D01*
X151966503Y-95269737D01*
X152116131Y-95299500D01*
X152121153Y-95300499D01*
X152121156Y-95300500D01*
X152121158Y-95300500D01*
X152278844Y-95300500D01*
X152278845Y-95300499D01*
X152433497Y-95269737D01*
X152579179Y-95209394D01*
X152627361Y-95177200D01*
X152710875Y-95121398D01*
X152777553Y-95100520D01*
X152779766Y-95100500D01*
X156368911Y-95100500D01*
X156368927Y-95100501D01*
X156376523Y-95100501D01*
X156534634Y-95100501D01*
X156534637Y-95100501D01*
X156687365Y-95059577D01*
X156738138Y-95030263D01*
X156824296Y-94980520D01*
X156936100Y-94868716D01*
X156936100Y-94868714D01*
X156946304Y-94858511D01*
X156946307Y-94858506D01*
X159842452Y-91962362D01*
X159903773Y-91928879D01*
X159905940Y-91928428D01*
X159963875Y-91916903D01*
X160061287Y-91897527D01*
X160206969Y-91837184D01*
X160338079Y-91749579D01*
X160449579Y-91638079D01*
X160537184Y-91506969D01*
X160540393Y-91499223D01*
X160574048Y-91417971D01*
X160597527Y-91361287D01*
X160628290Y-91206632D01*
X160628290Y-91048948D01*
X160628290Y-91048945D01*
X160628289Y-91048943D01*
X160625778Y-91036319D01*
X160597527Y-90894293D01*
X160583785Y-90861116D01*
X160537187Y-90748617D01*
X160537180Y-90748604D01*
X160449579Y-90617501D01*
X160449576Y-90617497D01*
X160338082Y-90506003D01*
X160338078Y-90506000D01*
X160206975Y-90418399D01*
X160206962Y-90418392D01*
X160061291Y-90358054D01*
X160061279Y-90358051D01*
X159906635Y-90327290D01*
X159906632Y-90327290D01*
X159748948Y-90327290D01*
X159748945Y-90327290D01*
X159594300Y-90358051D01*
X159594288Y-90358054D01*
X159448617Y-90418392D01*
X159448604Y-90418399D01*
X159317501Y-90506000D01*
X159317497Y-90506003D01*
X159206003Y-90617497D01*
X159206000Y-90617501D01*
X159118399Y-90748604D01*
X159118392Y-90748617D01*
X159058054Y-90894288D01*
X159058051Y-90894298D01*
X159027151Y-91049640D01*
X158994766Y-91111551D01*
X158993215Y-91113129D01*
X158477373Y-91628970D01*
X158416050Y-91662455D01*
X158346358Y-91657471D01*
X158290425Y-91615599D01*
X158271761Y-91579607D01*
X158258884Y-91539975D01*
X158169524Y-91364595D01*
X158053828Y-91205354D01*
X157914646Y-91066172D01*
X157755405Y-90950476D01*
X157747496Y-90946446D01*
X157580029Y-90861117D01*
X157392826Y-90800290D01*
X157198422Y-90769500D01*
X157198417Y-90769500D01*
X157001583Y-90769500D01*
X157001578Y-90769500D01*
X156807173Y-90800290D01*
X156619970Y-90861117D01*
X156444594Y-90950476D01*
X156387291Y-90992110D01*
X156285354Y-91066172D01*
X156285352Y-91066174D01*
X156285351Y-91066174D01*
X156146174Y-91205351D01*
X156146174Y-91205352D01*
X156146172Y-91205354D01*
X156127119Y-91231578D01*
X156030476Y-91364594D01*
X155941117Y-91539970D01*
X155880290Y-91727173D01*
X155849500Y-91921577D01*
X155849500Y-92118422D01*
X155880290Y-92312826D01*
X155941117Y-92500029D01*
X155977042Y-92570535D01*
X156030476Y-92675405D01*
X156146172Y-92834646D01*
X156285354Y-92973828D01*
X156444595Y-93089524D01*
X156619975Y-93178884D01*
X156659607Y-93191761D01*
X156717283Y-93231199D01*
X156744481Y-93295557D01*
X156732566Y-93364404D01*
X156708970Y-93397373D01*
X156243164Y-93863181D01*
X156181841Y-93896666D01*
X156155483Y-93899500D01*
X152779766Y-93899500D01*
X152712727Y-93879815D01*
X152710875Y-93878602D01*
X152579185Y-93790609D01*
X152579172Y-93790602D01*
X152433501Y-93730264D01*
X152433489Y-93730261D01*
X152278845Y-93699500D01*
X152278842Y-93699500D01*
X152121158Y-93699500D01*
X152121155Y-93699500D01*
X151966510Y-93730261D01*
X151966498Y-93730264D01*
X151820827Y-93790602D01*
X151820814Y-93790609D01*
X151689711Y-93878210D01*
X151689707Y-93878213D01*
X151578213Y-93989707D01*
X151578210Y-93989711D01*
X151490609Y-94120814D01*
X151490602Y-94120827D01*
X151430264Y-94266498D01*
X151430261Y-94266510D01*
X151399500Y-94421153D01*
X120600500Y-94421153D01*
X120600500Y-88047648D01*
X159099500Y-88047648D01*
X159099500Y-88252351D01*
X159131522Y-88454534D01*
X159194781Y-88649223D01*
X159231756Y-88721789D01*
X159276393Y-88809394D01*
X159287715Y-88831613D01*
X159408028Y-88997213D01*
X159552786Y-89141971D01*
X159707749Y-89254556D01*
X159718390Y-89262287D01*
X159834607Y-89321503D01*
X159900776Y-89355218D01*
X159900778Y-89355218D01*
X159900781Y-89355220D01*
X160005137Y-89389127D01*
X160095465Y-89418477D01*
X160196557Y-89434488D01*
X160297648Y-89450500D01*
X160297649Y-89450500D01*
X160502351Y-89450500D01*
X160502352Y-89450500D01*
X160704534Y-89418477D01*
X160899219Y-89355220D01*
X161081610Y-89262287D01*
X161174590Y-89194732D01*
X161247213Y-89141971D01*
X161247215Y-89141968D01*
X161247219Y-89141966D01*
X161391966Y-88997219D01*
X161391968Y-88997215D01*
X161391971Y-88997213D01*
X161462236Y-88900500D01*
X161512287Y-88831610D01*
X161605220Y-88649219D01*
X161668477Y-88454534D01*
X161700500Y-88252352D01*
X161700500Y-88047648D01*
X161694969Y-88012726D01*
X161668477Y-87845465D01*
X161605218Y-87650776D01*
X161561193Y-87564374D01*
X161512287Y-87468390D01*
X161498448Y-87449342D01*
X161391971Y-87302786D01*
X161247213Y-87158028D01*
X161081611Y-87037713D01*
X161027621Y-87010203D01*
X160976825Y-86962228D01*
X160960031Y-86894407D01*
X160982569Y-86828272D01*
X161027624Y-86789233D01*
X161081349Y-86761859D01*
X161125921Y-86729474D01*
X160446447Y-86050000D01*
X160452661Y-86050000D01*
X160554394Y-86022741D01*
X160645606Y-85970080D01*
X160720080Y-85895606D01*
X160772741Y-85804394D01*
X160800000Y-85702661D01*
X160800000Y-85696447D01*
X161479474Y-86375921D01*
X161511859Y-86331349D01*
X161604755Y-86149031D01*
X161667990Y-85954417D01*
X161700000Y-85752317D01*
X161700000Y-85547682D01*
X161667990Y-85345582D01*
X161604755Y-85150968D01*
X161511859Y-84968650D01*
X161479474Y-84924077D01*
X161479474Y-84924076D01*
X160800000Y-85603551D01*
X160800000Y-85597339D01*
X160772741Y-85495606D01*
X160720080Y-85404394D01*
X160645606Y-85329920D01*
X160554394Y-85277259D01*
X160452661Y-85250000D01*
X160446446Y-85250000D01*
X161125922Y-84570524D01*
X161125921Y-84570523D01*
X161081359Y-84538147D01*
X161081350Y-84538141D01*
X160899031Y-84445244D01*
X160704417Y-84382009D01*
X160502317Y-84350000D01*
X160297683Y-84350000D01*
X160095582Y-84382009D01*
X159900968Y-84445244D01*
X159718644Y-84538143D01*
X159674077Y-84570523D01*
X159674077Y-84570524D01*
X160353554Y-85250000D01*
X160347339Y-85250000D01*
X160245606Y-85277259D01*
X160154394Y-85329920D01*
X160079920Y-85404394D01*
X160027259Y-85495606D01*
X160000000Y-85597339D01*
X160000000Y-85603553D01*
X159320524Y-84924077D01*
X159320523Y-84924077D01*
X159288143Y-84968644D01*
X159195244Y-85150968D01*
X159132009Y-85345582D01*
X159100000Y-85547682D01*
X159100000Y-85752317D01*
X159132009Y-85954417D01*
X159195244Y-86149031D01*
X159288141Y-86331350D01*
X159288147Y-86331359D01*
X159320523Y-86375921D01*
X159320524Y-86375922D01*
X160000000Y-85696446D01*
X160000000Y-85702661D01*
X160027259Y-85804394D01*
X160079920Y-85895606D01*
X160154394Y-85970080D01*
X160245606Y-86022741D01*
X160347339Y-86050000D01*
X160353553Y-86050000D01*
X159674076Y-86729474D01*
X159718652Y-86761861D01*
X159772376Y-86789234D01*
X159823172Y-86837208D01*
X159839968Y-86905028D01*
X159817431Y-86971164D01*
X159772379Y-87010203D01*
X159718386Y-87037714D01*
X159552786Y-87158028D01*
X159408028Y-87302786D01*
X159287715Y-87468386D01*
X159194781Y-87650776D01*
X159131522Y-87845465D01*
X159099500Y-88047648D01*
X120600500Y-88047648D01*
X120600500Y-70321153D01*
X147599500Y-70321153D01*
X147599500Y-70478846D01*
X147630261Y-70633489D01*
X147630264Y-70633501D01*
X147690602Y-70779172D01*
X147690609Y-70779185D01*
X147778210Y-70910288D01*
X147778213Y-70910292D01*
X147889707Y-71021786D01*
X147889711Y-71021789D01*
X148020814Y-71109390D01*
X148020827Y-71109397D01*
X148166498Y-71169735D01*
X148166503Y-71169737D01*
X148231147Y-71182595D01*
X148321849Y-71200638D01*
X148383760Y-71233023D01*
X148385339Y-71234574D01*
X164715139Y-87564374D01*
X164715149Y-87564385D01*
X164719479Y-87568715D01*
X164719480Y-87568716D01*
X164831284Y-87680520D01*
X164901088Y-87720821D01*
X164968215Y-87759577D01*
X165120943Y-87800501D01*
X165120946Y-87800501D01*
X165286653Y-87800501D01*
X165286669Y-87800500D01*
X167320234Y-87800500D01*
X167387273Y-87820185D01*
X167389125Y-87821398D01*
X167520814Y-87909390D01*
X167520827Y-87909397D01*
X167666498Y-87969735D01*
X167666503Y-87969737D01*
X167821153Y-88000499D01*
X167821156Y-88000500D01*
X167821158Y-88000500D01*
X167978844Y-88000500D01*
X167978845Y-88000499D01*
X168133497Y-87969737D01*
X168279179Y-87909394D01*
X168410289Y-87821789D01*
X168521789Y-87710289D01*
X168609394Y-87579179D01*
X168669737Y-87433497D01*
X168700500Y-87278842D01*
X168700500Y-87121158D01*
X168700500Y-87121155D01*
X168700499Y-87121153D01*
X168692126Y-87079060D01*
X168669737Y-86966503D01*
X168645014Y-86906816D01*
X168609397Y-86820827D01*
X168609390Y-86820814D01*
X168521789Y-86689711D01*
X168521786Y-86689707D01*
X168410292Y-86578213D01*
X168410288Y-86578210D01*
X168279185Y-86490609D01*
X168279172Y-86490602D01*
X168133501Y-86430264D01*
X168133489Y-86430261D01*
X167978845Y-86399500D01*
X167978842Y-86399500D01*
X167821158Y-86399500D01*
X167821155Y-86399500D01*
X167666510Y-86430261D01*
X167666498Y-86430264D01*
X167520827Y-86490602D01*
X167520814Y-86490609D01*
X167389125Y-86578602D01*
X167322447Y-86599480D01*
X167320234Y-86599500D01*
X165500097Y-86599500D01*
X165433058Y-86579815D01*
X165412416Y-86563181D01*
X149234574Y-70385339D01*
X149201089Y-70324016D01*
X149200638Y-70321849D01*
X149169738Y-70166510D01*
X149169737Y-70166503D01*
X149169735Y-70166498D01*
X149109397Y-70020827D01*
X149109390Y-70020814D01*
X149021789Y-69889711D01*
X149021786Y-69889707D01*
X148910292Y-69778213D01*
X148910288Y-69778210D01*
X148779185Y-69690609D01*
X148779172Y-69690602D01*
X148633501Y-69630264D01*
X148633489Y-69630261D01*
X148478845Y-69599500D01*
X148478842Y-69599500D01*
X148321158Y-69599500D01*
X148321155Y-69599500D01*
X148166510Y-69630261D01*
X148166498Y-69630264D01*
X148020827Y-69690602D01*
X148020814Y-69690609D01*
X147889711Y-69778210D01*
X147889707Y-69778213D01*
X147778213Y-69889707D01*
X147778210Y-69889711D01*
X147690609Y-70020814D01*
X147690602Y-70020827D01*
X147630264Y-70166498D01*
X147630261Y-70166510D01*
X147599500Y-70321153D01*
X120600500Y-70321153D01*
X120600500Y-67321153D01*
X164299500Y-67321153D01*
X164299500Y-67478846D01*
X164330261Y-67633489D01*
X164330264Y-67633501D01*
X164390602Y-67779172D01*
X164390609Y-67779185D01*
X164478602Y-67910874D01*
X164499480Y-67977551D01*
X164499500Y-67979765D01*
X164499500Y-75313330D01*
X164499499Y-75313348D01*
X164499499Y-75479054D01*
X164499498Y-75479054D01*
X164507037Y-75507190D01*
X164540423Y-75631785D01*
X164551228Y-75650500D01*
X164569358Y-75681900D01*
X164569359Y-75681904D01*
X164569360Y-75681904D01*
X164619479Y-75768714D01*
X164619481Y-75768717D01*
X164738349Y-75887585D01*
X164738355Y-75887590D01*
X172565425Y-83714660D01*
X172598910Y-83775983D01*
X172599361Y-83778149D01*
X172630261Y-83933491D01*
X172630264Y-83933501D01*
X172690602Y-84079172D01*
X172690609Y-84079185D01*
X172778210Y-84210288D01*
X172778213Y-84210292D01*
X172889707Y-84321786D01*
X172889711Y-84321789D01*
X173020814Y-84409390D01*
X173020827Y-84409397D01*
X173107371Y-84445244D01*
X173166503Y-84469737D01*
X173321153Y-84500499D01*
X173321156Y-84500500D01*
X173321158Y-84500500D01*
X173478844Y-84500500D01*
X173478845Y-84500499D01*
X173633497Y-84469737D01*
X173779179Y-84409394D01*
X173910289Y-84321789D01*
X174021789Y-84210289D01*
X174109394Y-84079179D01*
X174169737Y-83933497D01*
X174200500Y-83778842D01*
X174200500Y-83621158D01*
X174200500Y-83621155D01*
X174200499Y-83621153D01*
X174179618Y-83516179D01*
X174169737Y-83466503D01*
X174117102Y-83339429D01*
X174109397Y-83320827D01*
X174109390Y-83320814D01*
X174021789Y-83189711D01*
X174021786Y-83189707D01*
X173910292Y-83078213D01*
X173910288Y-83078210D01*
X173779185Y-82990609D01*
X173779172Y-82990602D01*
X173633501Y-82930264D01*
X173633491Y-82930261D01*
X173478151Y-82899362D01*
X173416241Y-82866977D01*
X173414662Y-82865426D01*
X165736819Y-75187583D01*
X165703334Y-75126260D01*
X165700500Y-75099902D01*
X165700500Y-67979765D01*
X165720185Y-67912726D01*
X165721398Y-67910874D01*
X165809390Y-67779185D01*
X165809390Y-67779184D01*
X165809394Y-67779179D01*
X165869737Y-67633497D01*
X165900500Y-67478842D01*
X165900500Y-67321158D01*
X165900500Y-67321155D01*
X165900499Y-67321153D01*
X165885840Y-67247460D01*
X165869737Y-67166503D01*
X165856190Y-67133797D01*
X165809397Y-67020827D01*
X165809390Y-67020814D01*
X165721789Y-66889711D01*
X165721786Y-66889707D01*
X165610292Y-66778213D01*
X165610288Y-66778210D01*
X165479185Y-66690609D01*
X165479172Y-66690602D01*
X165333501Y-66630264D01*
X165333489Y-66630261D01*
X165178845Y-66599500D01*
X165178842Y-66599500D01*
X165021158Y-66599500D01*
X165021155Y-66599500D01*
X164866510Y-66630261D01*
X164866498Y-66630264D01*
X164720827Y-66690602D01*
X164720814Y-66690609D01*
X164589711Y-66778210D01*
X164589707Y-66778213D01*
X164478213Y-66889707D01*
X164478210Y-66889711D01*
X164390609Y-67020814D01*
X164390602Y-67020827D01*
X164330264Y-67166498D01*
X164330261Y-67166510D01*
X164299500Y-67321153D01*
X120600500Y-67321153D01*
X120600500Y-62902135D01*
X123449500Y-62902135D01*
X123449500Y-64697870D01*
X123449501Y-64697876D01*
X123455908Y-64757483D01*
X123506202Y-64892328D01*
X123506206Y-64892335D01*
X123592452Y-65007544D01*
X123592455Y-65007547D01*
X123707664Y-65093793D01*
X123707671Y-65093797D01*
X123842517Y-65144091D01*
X123842516Y-65144091D01*
X123849444Y-65144835D01*
X123902127Y-65150500D01*
X125697872Y-65150499D01*
X125757483Y-65144091D01*
X125892331Y-65093796D01*
X126007546Y-65007546D01*
X126093796Y-64892331D01*
X126144091Y-64757483D01*
X126150500Y-64697873D01*
X126150499Y-62902135D01*
X132149500Y-62902135D01*
X132149500Y-64697870D01*
X132149501Y-64697876D01*
X132155908Y-64757483D01*
X132206202Y-64892328D01*
X132206206Y-64892335D01*
X132292452Y-65007544D01*
X132292455Y-65007547D01*
X132407664Y-65093793D01*
X132407671Y-65093797D01*
X132542517Y-65144091D01*
X132542516Y-65144091D01*
X132549444Y-65144835D01*
X132602127Y-65150500D01*
X134397872Y-65150499D01*
X134457483Y-65144091D01*
X134592331Y-65093796D01*
X134707546Y-65007546D01*
X134793796Y-64892331D01*
X134844091Y-64757483D01*
X134850500Y-64697873D01*
X134850499Y-62902135D01*
X140749500Y-62902135D01*
X140749500Y-64697870D01*
X140749501Y-64697876D01*
X140755908Y-64757483D01*
X140806202Y-64892328D01*
X140806206Y-64892335D01*
X140892452Y-65007544D01*
X140892455Y-65007547D01*
X141007664Y-65093793D01*
X141007671Y-65093797D01*
X141142517Y-65144091D01*
X141142516Y-65144091D01*
X141149444Y-65144835D01*
X141202127Y-65150500D01*
X142997872Y-65150499D01*
X143057483Y-65144091D01*
X143192331Y-65093796D01*
X143307546Y-65007546D01*
X143393796Y-64892331D01*
X143444091Y-64757483D01*
X143450500Y-64697873D01*
X143450499Y-62902135D01*
X148749500Y-62902135D01*
X148749500Y-64697870D01*
X148749501Y-64697876D01*
X148755908Y-64757483D01*
X148806202Y-64892328D01*
X148806206Y-64892335D01*
X148892452Y-65007544D01*
X148892455Y-65007547D01*
X149007664Y-65093793D01*
X149007671Y-65093797D01*
X149142517Y-65144091D01*
X149142516Y-65144091D01*
X149149444Y-65144835D01*
X149202127Y-65150500D01*
X150997872Y-65150499D01*
X151057483Y-65144091D01*
X151192331Y-65093796D01*
X151307546Y-65007546D01*
X151393796Y-64892331D01*
X151444091Y-64757483D01*
X151450500Y-64697873D01*
X151450499Y-63800000D01*
X151450499Y-62902155D01*
X156650000Y-62902155D01*
X156650000Y-63550000D01*
X157566988Y-63550000D01*
X157534075Y-63607007D01*
X157500000Y-63734174D01*
X157500000Y-63865826D01*
X157534075Y-63992993D01*
X157566988Y-64050000D01*
X156650000Y-64050000D01*
X156650000Y-64697844D01*
X156656401Y-64757372D01*
X156656403Y-64757379D01*
X156706645Y-64892086D01*
X156706649Y-64892093D01*
X156792809Y-65007187D01*
X156792812Y-65007190D01*
X156907906Y-65093350D01*
X156907913Y-65093354D01*
X157042620Y-65143596D01*
X157042627Y-65143598D01*
X157102155Y-65149999D01*
X157102172Y-65150000D01*
X157750000Y-65150000D01*
X157750000Y-64233012D01*
X157807007Y-64265925D01*
X157934174Y-64300000D01*
X158065826Y-64300000D01*
X158192993Y-64265925D01*
X158250000Y-64233012D01*
X158250000Y-65150000D01*
X158897828Y-65150000D01*
X158897844Y-65149999D01*
X158957372Y-65143598D01*
X158957379Y-65143596D01*
X159092086Y-65093354D01*
X159092093Y-65093350D01*
X159207187Y-65007190D01*
X159207190Y-65007187D01*
X159293350Y-64892093D01*
X159293354Y-64892086D01*
X159343596Y-64757379D01*
X159343598Y-64757372D01*
X159349999Y-64697844D01*
X159350000Y-64697827D01*
X159350000Y-64050000D01*
X158433012Y-64050000D01*
X158465925Y-63992993D01*
X158500000Y-63865826D01*
X158500000Y-63734174D01*
X158465925Y-63607007D01*
X158433012Y-63550000D01*
X159350000Y-63550000D01*
X159350000Y-62902164D01*
X159349997Y-62902135D01*
X163749500Y-62902135D01*
X163749500Y-64697870D01*
X163749501Y-64697876D01*
X163755908Y-64757483D01*
X163806202Y-64892328D01*
X163806206Y-64892335D01*
X163892452Y-65007544D01*
X163892455Y-65007547D01*
X164007664Y-65093793D01*
X164007671Y-65093797D01*
X164142517Y-65144091D01*
X164142516Y-65144091D01*
X164149444Y-65144835D01*
X164202127Y-65150500D01*
X165997872Y-65150499D01*
X166057483Y-65144091D01*
X166192331Y-65093796D01*
X166307546Y-65007546D01*
X166393796Y-64892331D01*
X166444091Y-64757483D01*
X166450500Y-64697873D01*
X166450499Y-62902135D01*
X170849500Y-62902135D01*
X170849500Y-64697870D01*
X170849501Y-64697876D01*
X170855908Y-64757483D01*
X170906202Y-64892328D01*
X170906206Y-64892335D01*
X170992452Y-65007544D01*
X170992455Y-65007547D01*
X171107664Y-65093793D01*
X171107671Y-65093797D01*
X171242517Y-65144091D01*
X171242516Y-65144091D01*
X171249444Y-65144835D01*
X171302127Y-65150500D01*
X173097872Y-65150499D01*
X173157483Y-65144091D01*
X173292331Y-65093796D01*
X173407546Y-65007546D01*
X173493796Y-64892331D01*
X173544091Y-64757483D01*
X173550500Y-64697873D01*
X173550499Y-62902128D01*
X173544091Y-62842517D01*
X173542536Y-62838349D01*
X173493797Y-62707671D01*
X173493793Y-62707664D01*
X173407547Y-62592455D01*
X173407544Y-62592452D01*
X173292335Y-62506206D01*
X173292328Y-62506202D01*
X173157482Y-62455908D01*
X173157483Y-62455908D01*
X173097883Y-62449501D01*
X173097881Y-62449500D01*
X173097873Y-62449500D01*
X173097864Y-62449500D01*
X171302129Y-62449500D01*
X171302123Y-62449501D01*
X171242516Y-62455908D01*
X171107671Y-62506202D01*
X171107664Y-62506206D01*
X170992455Y-62592452D01*
X170992452Y-62592455D01*
X170906206Y-62707664D01*
X170906202Y-62707671D01*
X170855908Y-62842517D01*
X170849739Y-62899901D01*
X170849501Y-62902123D01*
X170849500Y-62902135D01*
X166450499Y-62902135D01*
X166450499Y-62902128D01*
X166444091Y-62842517D01*
X166442536Y-62838349D01*
X166393797Y-62707671D01*
X166393793Y-62707664D01*
X166307547Y-62592455D01*
X166307544Y-62592452D01*
X166192335Y-62506206D01*
X166192328Y-62506202D01*
X166057482Y-62455908D01*
X166057483Y-62455908D01*
X165997883Y-62449501D01*
X165997881Y-62449500D01*
X165997873Y-62449500D01*
X165997864Y-62449500D01*
X164202129Y-62449500D01*
X164202123Y-62449501D01*
X164142516Y-62455908D01*
X164007671Y-62506202D01*
X164007664Y-62506206D01*
X163892455Y-62592452D01*
X163892452Y-62592455D01*
X163806206Y-62707664D01*
X163806202Y-62707671D01*
X163755908Y-62842517D01*
X163749739Y-62899901D01*
X163749501Y-62902123D01*
X163749500Y-62902135D01*
X159349997Y-62902135D01*
X159343598Y-62842627D01*
X159343596Y-62842620D01*
X159293354Y-62707913D01*
X159293350Y-62707906D01*
X159207190Y-62592812D01*
X159207187Y-62592809D01*
X159092093Y-62506649D01*
X159092086Y-62506645D01*
X158957379Y-62456403D01*
X158957372Y-62456401D01*
X158897844Y-62450000D01*
X158250000Y-62450000D01*
X158250000Y-63366988D01*
X158192993Y-63334075D01*
X158065826Y-63300000D01*
X157934174Y-63300000D01*
X157807007Y-63334075D01*
X157750000Y-63366988D01*
X157750000Y-62450000D01*
X157102155Y-62450000D01*
X157042627Y-62456401D01*
X157042620Y-62456403D01*
X156907913Y-62506645D01*
X156907906Y-62506649D01*
X156792812Y-62592809D01*
X156792809Y-62592812D01*
X156706649Y-62707906D01*
X156706645Y-62707913D01*
X156656403Y-62842620D01*
X156656401Y-62842627D01*
X156650000Y-62902155D01*
X151450499Y-62902155D01*
X151450499Y-62902129D01*
X151450498Y-62902123D01*
X151450497Y-62902116D01*
X151444091Y-62842517D01*
X151442536Y-62838349D01*
X151393797Y-62707671D01*
X151393793Y-62707664D01*
X151307547Y-62592455D01*
X151307544Y-62592452D01*
X151192335Y-62506206D01*
X151192328Y-62506202D01*
X151057482Y-62455908D01*
X151057483Y-62455908D01*
X150997883Y-62449501D01*
X150997881Y-62449500D01*
X150997873Y-62449500D01*
X150997864Y-62449500D01*
X149202129Y-62449500D01*
X149202123Y-62449501D01*
X149142516Y-62455908D01*
X149007671Y-62506202D01*
X149007664Y-62506206D01*
X148892455Y-62592452D01*
X148892452Y-62592455D01*
X148806206Y-62707664D01*
X148806202Y-62707671D01*
X148755908Y-62842517D01*
X148749739Y-62899901D01*
X148749501Y-62902123D01*
X148749500Y-62902135D01*
X143450499Y-62902135D01*
X143450499Y-62902128D01*
X143444091Y-62842517D01*
X143442536Y-62838349D01*
X143393797Y-62707671D01*
X143393793Y-62707664D01*
X143307547Y-62592455D01*
X143307544Y-62592452D01*
X143192335Y-62506206D01*
X143192328Y-62506202D01*
X143057482Y-62455908D01*
X143057483Y-62455908D01*
X142997883Y-62449501D01*
X142997881Y-62449500D01*
X142997873Y-62449500D01*
X142997864Y-62449500D01*
X141202129Y-62449500D01*
X141202123Y-62449501D01*
X141142516Y-62455908D01*
X141007671Y-62506202D01*
X141007664Y-62506206D01*
X140892455Y-62592452D01*
X140892452Y-62592455D01*
X140806206Y-62707664D01*
X140806202Y-62707671D01*
X140755908Y-62842517D01*
X140749739Y-62899901D01*
X140749501Y-62902123D01*
X140749500Y-62902135D01*
X134850499Y-62902135D01*
X134850499Y-62902128D01*
X134844091Y-62842517D01*
X134842536Y-62838349D01*
X134793797Y-62707671D01*
X134793793Y-62707664D01*
X134707547Y-62592455D01*
X134707544Y-62592452D01*
X134592335Y-62506206D01*
X134592328Y-62506202D01*
X134457482Y-62455908D01*
X134457483Y-62455908D01*
X134397883Y-62449501D01*
X134397881Y-62449500D01*
X134397873Y-62449500D01*
X134397864Y-62449500D01*
X132602129Y-62449500D01*
X132602123Y-62449501D01*
X132542516Y-62455908D01*
X132407671Y-62506202D01*
X132407664Y-62506206D01*
X132292455Y-62592452D01*
X132292452Y-62592455D01*
X132206206Y-62707664D01*
X132206202Y-62707671D01*
X132155908Y-62842517D01*
X132149739Y-62899901D01*
X132149501Y-62902123D01*
X132149500Y-62902135D01*
X126150499Y-62902135D01*
X126150499Y-62902128D01*
X126144091Y-62842517D01*
X126142536Y-62838349D01*
X126093797Y-62707671D01*
X126093793Y-62707664D01*
X126007547Y-62592455D01*
X126007544Y-62592452D01*
X125892335Y-62506206D01*
X125892328Y-62506202D01*
X125757482Y-62455908D01*
X125757483Y-62455908D01*
X125697883Y-62449501D01*
X125697881Y-62449500D01*
X125697873Y-62449500D01*
X125697864Y-62449500D01*
X123902129Y-62449500D01*
X123902123Y-62449501D01*
X123842516Y-62455908D01*
X123707671Y-62506202D01*
X123707664Y-62506206D01*
X123592455Y-62592452D01*
X123592452Y-62592455D01*
X123506206Y-62707664D01*
X123506202Y-62707671D01*
X123455908Y-62842517D01*
X123449739Y-62899901D01*
X123449501Y-62902123D01*
X123449500Y-62902135D01*
X120600500Y-62902135D01*
X120600500Y-60524500D01*
X120620185Y-60457461D01*
X120672989Y-60411706D01*
X120724500Y-60400500D01*
X209475500Y-60400500D01*
X209542539Y-60420185D01*
G37*
%TD.AperFunction*%
%TD*%
M02*
