M48
; DRILL file {KiCad 9.0.7} date 2026-04-26T10:34:53+0200
; FORMAT={-:-/ absolute / metric / decimal}
; #@! TF.CreationDate,2026-04-26T10:34:53+02:00
; #@! TF.GenerationSoftware,Kicad,Pcbnew,9.0.7
; #@! TF.FileFunction,Plated,1,2,PTH
FMAT,2
METRIC
; #@! TA.AperFunction,Plated,PTH,ViaDrill
T1C0.300
; #@! TA.AperFunction,Plated,PTH,ComponentDrill
T2C0.800
; #@! TA.AperFunction,Plated,PTH,ComponentDrill
T3C0.900
; #@! TA.AperFunction,Plated,PTH,ComponentDrill
T4C1.000
; #@! TA.AperFunction,Plated,PTH,ComponentDrill
T5C1.100
; #@! TA.AperFunction,Plated,PTH,ComponentDrill
T6C1.300
%
G90
G05
T1
X148.4Y-70.4
X152.2Y-94.5
X159.828Y-91.128
X161.6Y-80.2
X162.4Y-90.7
X162.4Y-112.7
X163.4Y-91.2
X164.5Y-107.1
X165.1Y-67.4
X165.6Y-80.3
X166.3Y-91.2
X167.9Y-87.2
X167.9Y-91.0
X170.894Y-93.3
X172.6Y-95.7
X172.6Y-96.5
X172.6Y-97.9
X172.7Y-94.1
X173.4Y-83.7
X180.7Y-94.6
X180.8Y-83.3
X180.9Y-87.5
X183.6Y-96.1
X185.5Y-92.9
X186.0Y-86.5
X188.4Y-88.1
X188.5Y-84.3
X189.0Y-101.7
X189.7Y-75.5
X189.7Y-83.2
X190.6Y-85.9
X190.6Y-101.7
X192.2Y-75.5
X192.4Y-87.5
X195.6Y-79.3
X196.9Y-92.3
X196.9Y-95.8
X197.7Y-77.8
T2
X157.1Y-92.02
X157.1Y-96.9
X160.4Y-85.65
X160.4Y-88.15
X161.0Y-100.0
X161.0Y-102.5
X187.08Y-91.0
X187.08Y-95.7
X187.38Y-105.8
X194.7Y-91.0
X194.7Y-95.7
X195.0Y-105.8
T3
X138.96Y-125.1
X141.5Y-125.1
X150.26Y-125.2
X152.8Y-125.2
T4
X124.8Y-63.8
X133.5Y-63.8
X142.1Y-63.8
X150.1Y-63.8
X158.0Y-63.8
X165.1Y-63.8
X172.2Y-63.8
X179.1Y-63.8
X186.1Y-63.8
X193.2Y-63.8
X198.66Y-74.3
X201.2Y-74.3
X201.3Y-63.3
X201.3Y-65.84
X203.74Y-74.3
X203.84Y-63.3
X203.84Y-65.84
X206.28Y-74.3
X206.38Y-63.3
X206.38Y-65.84
T5
X161.2Y-122.5
X161.2Y-127.0
X167.7Y-122.5
X167.7Y-127.0
T6
X203.4Y-91.3
X203.4Y-96.38
M30
