%TF.GenerationSoftware,KiCad,Pcbnew,9.0.7*%
%TF.CreationDate,2026-04-26T10:33:40+02:00*%
%TF.ProjectId,KapTesterV2,4b617054-6573-4746-9572-56322e6b6963,rev?*%
%TF.SameCoordinates,Original*%
%TF.FileFunction,Copper,L1,Top*%
%TF.FilePolarity,Positive*%
%FSLAX46Y46*%
G04 Gerber Fmt 4.6, Leading zero omitted, Abs format (unit mm)*
G04 Created by KiCad (PCBNEW 9.0.7) date 2026-04-26 10:33:40*
%MOMM*%
%LPD*%
G01*
G04 APERTURE LIST*
G04 Aperture macros list*
%AMRoundRect*
0 Rectangle with rounded corners*
0 $1 Rounding radius*
0 $2 $3 $4 $5 $6 $7 $8 $9 X,Y pos of 4 corners*
0 Add a 4 corners polygon primitive as box body*
4,1,4,$2,$3,$4,$5,$6,$7,$8,$9,$2,$3,0*
0 Add four circle primitives for the rounded corners*
1,1,$1+$1,$2,$3*
1,1,$1+$1,$4,$5*
1,1,$1+$1,$6,$7*
1,1,$1+$1,$8,$9*
0 Add four rect primitives between the rounded corners*
20,1,$1+$1,$2,$3,$4,$5,0*
20,1,$1+$1,$4,$5,$6,$7,0*
20,1,$1+$1,$6,$7,$8,$9,0*
20,1,$1+$1,$8,$9,$2,$3,0*%
%AMFreePoly0*
4,1,9,3.862500,-0.866500,0.737500,-0.866500,0.737500,-0.450000,-0.737500,-0.450000,-0.737500,0.450000,0.737500,0.450000,0.737500,0.866500,3.862500,0.866500,3.862500,-0.866500,3.862500,-0.866500,$1*%
G04 Aperture macros list end*
%TA.AperFunction,SMDPad,CuDef*%
%ADD10RoundRect,0.250000X-0.350000X-0.450000X0.350000X-0.450000X0.350000X0.450000X-0.350000X0.450000X0*%
%TD*%
%TA.AperFunction,SMDPad,CuDef*%
%ADD11RoundRect,0.250000X0.450000X-0.350000X0.450000X0.350000X-0.450000X0.350000X-0.450000X-0.350000X0*%
%TD*%
%TA.AperFunction,SMDPad,CuDef*%
%ADD12R,1.380000X0.450000*%
%TD*%
%TA.AperFunction,SMDPad,CuDef*%
%ADD13R,1.300000X1.650000*%
%TD*%
%TA.AperFunction,SMDPad,CuDef*%
%ADD14R,1.550000X1.425000*%
%TD*%
%TA.AperFunction,SMDPad,CuDef*%
%ADD15R,1.900000X1.800000*%
%TD*%
%TA.AperFunction,SMDPad,CuDef*%
%ADD16R,1.900000X1.000000*%
%TD*%
%TA.AperFunction,ComponentPad*%
%ADD17R,1.700000X1.700000*%
%TD*%
%TA.AperFunction,SMDPad,CuDef*%
%ADD18RoundRect,0.137500X-0.600000X-0.137500X0.600000X-0.137500X0.600000X0.137500X-0.600000X0.137500X0*%
%TD*%
%TA.AperFunction,SMDPad,CuDef*%
%ADD19RoundRect,0.137500X-0.137500X-0.600000X0.137500X-0.600000X0.137500X0.600000X-0.137500X0.600000X0*%
%TD*%
%TA.AperFunction,SMDPad,CuDef*%
%ADD20RoundRect,0.250000X-0.475000X0.337500X-0.475000X-0.337500X0.475000X-0.337500X0.475000X0.337500X0*%
%TD*%
%TA.AperFunction,ComponentPad*%
%ADD21C,1.600000*%
%TD*%
%TA.AperFunction,ComponentPad*%
%ADD22C,2.000000*%
%TD*%
%TA.AperFunction,SMDPad,CuDef*%
%ADD23RoundRect,0.225000X-0.425000X-0.225000X0.425000X-0.225000X0.425000X0.225000X-0.425000X0.225000X0*%
%TD*%
%TA.AperFunction,SMDPad,CuDef*%
%ADD24FreePoly0,0.000000*%
%TD*%
%TA.AperFunction,ComponentPad*%
%ADD25R,1.800000X1.800000*%
%TD*%
%TA.AperFunction,ComponentPad*%
%ADD26C,1.800000*%
%TD*%
%TA.AperFunction,SMDPad,CuDef*%
%ADD27R,2.100000X2.600000*%
%TD*%
%TA.AperFunction,ComponentPad*%
%ADD28C,1.700000*%
%TD*%
%TA.AperFunction,SMDPad,CuDef*%
%ADD29RoundRect,0.250000X0.337500X0.475000X-0.337500X0.475000X-0.337500X-0.475000X0.337500X-0.475000X0*%
%TD*%
%TA.AperFunction,SMDPad,CuDef*%
%ADD30RoundRect,0.150000X-0.587500X-0.150000X0.587500X-0.150000X0.587500X0.150000X-0.587500X0.150000X0*%
%TD*%
%TA.AperFunction,ComponentPad*%
%ADD31C,1.500000*%
%TD*%
%TA.AperFunction,ComponentPad*%
%ADD32RoundRect,0.250000X1.050000X-1.050000X1.050000X1.050000X-1.050000X1.050000X-1.050000X-1.050000X0*%
%TD*%
%TA.AperFunction,ComponentPad*%
%ADD33C,2.600000*%
%TD*%
%TA.AperFunction,SMDPad,CuDef*%
%ADD34RoundRect,0.150000X0.150000X-0.587500X0.150000X0.587500X-0.150000X0.587500X-0.150000X-0.587500X0*%
%TD*%
%TA.AperFunction,ViaPad*%
%ADD35C,0.600000*%
%TD*%
%TA.AperFunction,Conductor*%
%ADD36C,0.200000*%
%TD*%
%TA.AperFunction,Conductor*%
%ADD37C,0.250000*%
%TD*%
%TA.AperFunction,Conductor*%
%ADD38C,0.500000*%
%TD*%
%TA.AperFunction,Conductor*%
%ADD39C,0.400000*%
%TD*%
G04 APERTURE END LIST*
D10*
%TO.P,R20,1*%
%TO.N,/MEAS_NODE*%
X178300000Y-101200000D03*
%TO.P,R20,2*%
%TO.N,Net-(Q2-D)*%
X180300000Y-101200000D03*
%TD*%
D11*
%TO.P,R4,1*%
%TO.N,+5V_BOARD*%
X203500000Y-82300000D03*
%TO.P,R4,2*%
%TO.N,/I2C_SDA*%
X203500000Y-80300000D03*
%TD*%
D12*
%TO.P,J1,1,VBUS*%
%TO.N,/USB_5V*%
X127085000Y-93187500D03*
%TO.P,J1,2,D-*%
%TO.N,unconnected-(J1-D--Pad2)*%
X127085000Y-93837500D03*
%TO.P,J1,3,D+*%
%TO.N,unconnected-(J1-D+-Pad3)*%
X127085000Y-94487500D03*
%TO.P,J1,4,ID*%
%TO.N,unconnected-(J1-ID-Pad4)*%
X127085000Y-95137500D03*
%TO.P,J1,5,GND*%
%TO.N,GND*%
X127085000Y-95787500D03*
D13*
%TO.P,J1,6,Shield*%
X124425000Y-91112500D03*
D14*
X127000000Y-92000000D03*
D15*
X124425000Y-93337500D03*
D16*
X124425000Y-96037500D03*
D14*
X127000000Y-96975000D03*
D13*
X124425000Y-97862500D03*
%TD*%
D17*
%TO.P,JTP4,1,Pin_1*%
%TO.N,+5V_BOARD*%
X150100000Y-63800000D03*
%TD*%
%TO.P,JTP5,1,Pin_1*%
%TO.N,GND*%
X158000000Y-63800000D03*
%TD*%
D11*
%TO.P,R5,1*%
%TO.N,+5V_BOARD*%
X197900000Y-82100000D03*
%TO.P,R5,2*%
%TO.N,/I2C_SCL*%
X197900000Y-80100000D03*
%TD*%
D17*
%TO.P,JTP8,1,Pin_1*%
%TO.N,/RESET*%
X179100000Y-63800000D03*
%TD*%
D18*
%TO.P,U1,1,PD3*%
%TO.N,/LED_ERR*%
X160975000Y-90900000D03*
%TO.P,U1,2,PD4*%
%TO.N,unconnected-(U1-PD4-Pad2)*%
X160975000Y-91700000D03*
%TO.P,U1,3,GND*%
%TO.N,GND*%
X160975000Y-92500000D03*
%TO.P,U1,4,VCC*%
%TO.N,+5V_BOARD*%
X160975000Y-93300000D03*
%TO.P,U1,5,GND*%
%TO.N,GND*%
X160975000Y-94100000D03*
%TO.P,U1,6,VCC*%
%TO.N,+5V_BOARD*%
X160975000Y-94900000D03*
%TO.P,U1,7,XTAL1/PB6*%
%TO.N,Net-(U1-XTAL1{slash}PB6)*%
X160975000Y-95700000D03*
%TO.P,U1,8,XTAL2/PB7*%
%TO.N,Net-(U1-XTAL2{slash}PB7)*%
X160975000Y-96500000D03*
D19*
%TO.P,U1,9,PD5*%
%TO.N,unconnected-(U1-PD5-Pad9)*%
X162337500Y-97862500D03*
%TO.P,U1,10,PD6*%
%TO.N,unconnected-(U1-PD6-Pad10)*%
X163137500Y-97862500D03*
%TO.P,U1,11,PD7*%
%TO.N,unconnected-(U1-PD7-Pad11)*%
X163937500Y-97862500D03*
%TO.P,U1,12,PB0*%
%TO.N,unconnected-(U1-PB0-Pad12)*%
X164737500Y-97862500D03*
%TO.P,U1,13,PB1*%
%TO.N,/DISCH_GATE*%
X165537500Y-97862500D03*
%TO.P,U1,14,PB2*%
%TO.N,unconnected-(U1-PB2-Pad14)*%
X166337500Y-97862500D03*
%TO.P,U1,15,PB3*%
%TO.N,/MOSI*%
X167137500Y-97862500D03*
%TO.P,U1,16,PB4*%
%TO.N,/MISO*%
X167937500Y-97862500D03*
D18*
%TO.P,U1,17,PB5*%
%TO.N,/SCK*%
X169300000Y-96500000D03*
%TO.P,U1,18,AVCC*%
%TO.N,+5V_BOARD*%
X169300000Y-95700000D03*
%TO.P,U1,19,ADC6*%
%TO.N,unconnected-(U1-ADC6-Pad19)*%
X169300000Y-94900000D03*
%TO.P,U1,20,AREF*%
%TO.N,Net-(U1-AREF)*%
X169300000Y-94100000D03*
%TO.P,U1,21,GND*%
%TO.N,GND*%
X169300000Y-93300000D03*
%TO.P,U1,22,ADC7*%
%TO.N,unconnected-(U1-ADC7-Pad22)*%
X169300000Y-92500000D03*
%TO.P,U1,23,PC0*%
%TO.N,/ADC_MEAS*%
X169300000Y-91700000D03*
%TO.P,U1,24,PC1*%
%TO.N,unconnected-(U1-PC1-Pad24)*%
X169300000Y-90900000D03*
D19*
%TO.P,U1,25,PC2*%
%TO.N,/START_BTN*%
X167937500Y-89537500D03*
%TO.P,U1,26,PC3*%
%TO.N,unconnected-(U1-PC3-Pad26)*%
X167137500Y-89537500D03*
%TO.P,U1,27,PC4*%
%TO.N,/I2C_SDA*%
X166337500Y-89537500D03*
%TO.P,U1,28,PC5*%
%TO.N,/I2C_SCL*%
X165537500Y-89537500D03*
%TO.P,U1,29,~{RESET}/PC6*%
%TO.N,/RESET*%
X164737500Y-89537500D03*
%TO.P,U1,30,PD0*%
%TO.N,unconnected-(U1-PD0-Pad30)*%
X163937500Y-89537500D03*
%TO.P,U1,31,PD1*%
%TO.N,unconnected-(U1-PD1-Pad31)*%
X163137500Y-89537500D03*
%TO.P,U1,32,PD2*%
%TO.N,/LED_PWR*%
X162337500Y-89537500D03*
%TD*%
D17*
%TO.P,JTP1,1,Pin_1*%
%TO.N,/USB_5V*%
X124800000Y-63800000D03*
%TD*%
D11*
%TO.P,R1,1*%
%TO.N,/MEAS_NODE*%
X173800000Y-92600000D03*
%TO.P,R1,2*%
%TO.N,/ADC_MEAS*%
X173800000Y-90600000D03*
%TD*%
D20*
%TO.P,C5,1*%
%TO.N,GND*%
X178850000Y-85475000D03*
%TO.P,C5,2*%
%TO.N,+5V_BOARD*%
X178850000Y-87550000D03*
%TD*%
D21*
%TO.P,C7,1*%
%TO.N,GND*%
X161000000Y-102500000D03*
%TO.P,C7,2*%
%TO.N,Net-(U1-XTAL2{slash}PB7)*%
X161000000Y-100000000D03*
%TD*%
D22*
%TO.P,SW1,1,1*%
%TO.N,/START_BTN*%
X161200000Y-122500000D03*
X167700000Y-122500000D03*
%TO.P,SW1,2,2*%
%TO.N,GND*%
X161200000Y-127000000D03*
X167700000Y-127000000D03*
%TD*%
D23*
%TO.P,U2,1,ADJ*%
%TO.N,/MEAS_NODE*%
X200950000Y-109600000D03*
D24*
%TO.P,U2,2,VO*%
%TO.N,/LM317_OUT*%
X201037500Y-111100000D03*
D23*
%TO.P,U2,3,VI*%
%TO.N,+5V_BOARD*%
X200950000Y-112600000D03*
%TD*%
D25*
%TO.P,D2,1,K*%
%TO.N,GND*%
X138960000Y-125100000D03*
D26*
%TO.P,D2,2,A*%
%TO.N,Net-(D2-A)*%
X141500000Y-125100000D03*
%TD*%
D21*
%TO.P,R10,1*%
%TO.N,/RESET*%
X187080000Y-95700000D03*
%TO.P,R10,2*%
%TO.N,+5V_BOARD*%
X194700000Y-95700000D03*
%TD*%
D27*
%TO.P,R6,1*%
%TO.N,/LED_PWR*%
X148650000Y-117700000D03*
%TO.P,R6,2*%
%TO.N,Net-(D1-A)*%
X153550000Y-117700000D03*
%TD*%
D17*
%TO.P,JTP2,1,Pin_1*%
%TO.N,+5V_BOARD*%
X133500000Y-63800000D03*
%TD*%
D20*
%TO.P,C8,1*%
%TO.N,/START_BTN*%
X178850000Y-81100000D03*
%TO.P,C8,2*%
%TO.N,GND*%
X178850000Y-83175000D03*
%TD*%
D17*
%TO.P,JTP3,1,Pin_1*%
%TO.N,/I2C_SDA*%
X142100000Y-63800000D03*
%TD*%
D20*
%TO.P,C2,1*%
%TO.N,GND*%
X178850000Y-90000000D03*
%TO.P,C2,2*%
%TO.N,Net-(U1-AREF)*%
X178850000Y-92075000D03*
%TD*%
D17*
%TO.P,JTP6,1,Pin_1*%
%TO.N,/ADC_MEAS*%
X165100000Y-63800000D03*
%TD*%
%TO.P,J2,1,Pin_1*%
%TO.N,GND*%
X198660000Y-74300000D03*
D28*
%TO.P,J2,2,Pin_2*%
%TO.N,+5V_BOARD*%
X201200000Y-74300000D03*
%TO.P,J2,3,Pin_3*%
%TO.N,/I2C_SCL*%
X203740000Y-74300000D03*
%TO.P,J2,4,Pin_4*%
%TO.N,/I2C_SDA*%
X206280000Y-74300000D03*
%TD*%
D21*
%TO.P,C6,1*%
%TO.N,Net-(U1-XTAL1{slash}PB6)*%
X160400000Y-88150000D03*
%TO.P,C6,2*%
%TO.N,GND*%
X160400000Y-85650000D03*
%TD*%
%TO.P,R8,1*%
%TO.N,/LM317_OUT*%
X187380000Y-105800000D03*
%TO.P,R8,2*%
%TO.N,/MEAS_NODE*%
X195000000Y-105800000D03*
%TD*%
D17*
%TO.P,J4,1,MISO*%
%TO.N,/MISO*%
X201300000Y-65840000D03*
D28*
%TO.P,J4,2,VCC*%
%TO.N,+5V_BOARD*%
X201300000Y-63300000D03*
%TO.P,J4,3,SCK*%
%TO.N,/SCK*%
X203840000Y-65840000D03*
%TO.P,J4,4,MOSI*%
%TO.N,/MOSI*%
X203840000Y-63300000D03*
%TO.P,J4,5,~{RST}*%
%TO.N,/RESET*%
X206380000Y-65840000D03*
%TO.P,J4,6,GND*%
%TO.N,GND*%
X206380000Y-63300000D03*
%TD*%
D25*
%TO.P,D1,1,K*%
%TO.N,GND*%
X150260000Y-125200000D03*
D26*
%TO.P,D1,2,A*%
%TO.N,Net-(D1-A)*%
X152800000Y-125200000D03*
%TD*%
D27*
%TO.P,R2,1*%
%TO.N,/USB_5V*%
X137400000Y-88300000D03*
%TO.P,R2,2*%
%TO.N,Net-(Q1-G)*%
X132500000Y-88300000D03*
%TD*%
D29*
%TO.P,C4,1*%
%TO.N,GND*%
X165575000Y-82600000D03*
%TO.P,C4,2*%
%TO.N,+5V_BOARD*%
X163500000Y-82600000D03*
%TD*%
D30*
%TO.P,Q2,1,G*%
%TO.N,/DISCH_GATE*%
X193062500Y-99850000D03*
%TO.P,Q2,2,S*%
%TO.N,GND*%
X193062500Y-101750000D03*
%TO.P,Q2,3,D*%
%TO.N,Net-(Q2-D)*%
X194937500Y-100800000D03*
%TD*%
D21*
%TO.P,R9,1*%
%TO.N,/DISCH_GATE*%
X187080000Y-91000000D03*
%TO.P,R9,2*%
%TO.N,GND*%
X194700000Y-91000000D03*
%TD*%
D29*
%TO.P,C3,1*%
%TO.N,GND*%
X165675000Y-85700000D03*
%TO.P,C3,2*%
%TO.N,+5V_BOARD*%
X163600000Y-85700000D03*
%TD*%
D27*
%TO.P,R3,1*%
%TO.N,Net-(Q1-G)*%
X137250000Y-101500000D03*
%TO.P,R3,2*%
%TO.N,GND*%
X132350000Y-101500000D03*
%TD*%
D17*
%TO.P,JTP10,1,Pin_1*%
%TO.N,/DISCH_GATE*%
X193200000Y-63800000D03*
%TD*%
%TO.P,JTP7,1,Pin_1*%
%TO.N,+5V_BOARD*%
X172200000Y-63800000D03*
%TD*%
D31*
%TO.P,Y1,1,1*%
%TO.N,Net-(U1-XTAL2{slash}PB7)*%
X157100000Y-96900000D03*
%TO.P,Y1,2,2*%
%TO.N,Net-(U1-XTAL1{slash}PB6)*%
X157100000Y-92020000D03*
%TD*%
D27*
%TO.P,R7,1*%
%TO.N,/LED_ERR*%
X138250000Y-117400000D03*
%TO.P,R7,2*%
%TO.N,Net-(D2-A)*%
X143150000Y-117400000D03*
%TD*%
D32*
%TO.P,J3,1,Pin_1*%
%TO.N,/MEAS_NODE*%
X203400000Y-96380000D03*
D33*
%TO.P,J3,2,Pin_2*%
%TO.N,GND*%
X203400000Y-91300000D03*
%TD*%
D20*
%TO.P,C1,1*%
%TO.N,GND*%
X178850000Y-94637500D03*
%TO.P,C1,2*%
%TO.N,/ADC_MEAS*%
X178850000Y-96712500D03*
%TD*%
D34*
%TO.P,Q1,1,G*%
%TO.N,Net-(Q1-G)*%
X133700000Y-95400000D03*
%TO.P,Q1,2,S*%
%TO.N,/USB_5V*%
X135600000Y-95400000D03*
%TO.P,Q1,3,D*%
%TO.N,+5V_BOARD*%
X134650000Y-93525000D03*
%TD*%
D17*
%TO.P,JTP9,1,Pin_1*%
%TO.N,/MEAS_NODE*%
X186100000Y-63800000D03*
%TD*%
D35*
%TO.N,GND*%
X190600000Y-101700000D03*
X166300000Y-91200000D03*
X180700000Y-94600000D03*
X165600000Y-80300000D03*
X180800000Y-83300000D03*
X170894000Y-93300000D03*
X164500000Y-107100000D03*
X189700000Y-75500000D03*
X161600000Y-80200000D03*
X189700000Y-83200000D03*
%TO.N,/ADC_MEAS*%
X165100000Y-67400000D03*
X173400000Y-83700000D03*
%TO.N,Net-(U1-AREF)*%
X183600000Y-96100000D03*
X172700000Y-94100000D03*
%TO.N,+5V_BOARD*%
X180900000Y-87500000D03*
X172600000Y-95700000D03*
X192400000Y-87500000D03*
%TO.N,/START_BTN*%
X167900000Y-91000000D03*
%TO.N,/I2C_SDA*%
X148400000Y-70400000D03*
X167900000Y-87200000D03*
%TO.N,/I2C_SCL*%
X197700000Y-77800000D03*
X192200000Y-75500000D03*
X163400000Y-91200000D03*
X195600000Y-79300000D03*
%TO.N,/MEAS_NODE*%
X190600000Y-85900000D03*
X189000000Y-101700000D03*
X188400000Y-88100000D03*
%TO.N,/RESET*%
X186000000Y-86500000D03*
X185500000Y-92900000D03*
%TO.N,/MISO*%
X172600000Y-97900000D03*
%TO.N,/MOSI*%
X196900000Y-95800000D03*
X196900000Y-92300000D03*
%TO.N,/SCK*%
X172600000Y-96500000D03*
%TO.N,/DISCH_GATE*%
X188500000Y-84300000D03*
%TO.N,/LED_PWR*%
X162400000Y-112700000D03*
X162400000Y-90700000D03*
%TO.N,/LED_ERR*%
X159827790Y-91127790D03*
X152200000Y-94500000D03*
%TD*%
D36*
%TO.N,+5V_BOARD*%
X160413556Y-94900000D02*
X160975000Y-94900000D01*
X159936500Y-94422944D02*
X160413556Y-94900000D01*
X159936500Y-93601001D02*
X159936500Y-94422944D01*
X160237501Y-93300000D02*
X159936500Y-93601001D01*
X160975000Y-93300000D02*
X160237501Y-93300000D01*
D37*
X160975000Y-94900000D02*
X163938556Y-94900000D01*
D36*
X159494950Y-93300000D02*
X160975000Y-93300000D01*
D38*
%TO.N,/MEAS_NODE*%
X197150000Y-105800000D02*
X200950000Y-109600000D01*
X195000000Y-105800000D02*
X197150000Y-105800000D01*
D36*
%TO.N,+5V_BOARD*%
X204685160Y-94779000D02*
X205001000Y-94463160D01*
X205001000Y-94463160D02*
X205001000Y-83801000D01*
D37*
%TO.N,/MEAS_NODE*%
X203400000Y-99650000D02*
X203400000Y-96380000D01*
D36*
%TO.N,Net-(Q2-D)*%
X189647943Y-102300000D02*
X181400000Y-102300000D01*
X189999000Y-101948943D02*
X189647943Y-102300000D01*
X189999000Y-101451057D02*
X189999000Y-101948943D01*
X190650057Y-100800000D02*
X189999000Y-101451057D01*
X181400000Y-102300000D02*
X180300000Y-101200000D01*
X194937500Y-100800000D02*
X190650057Y-100800000D01*
D38*
%TO.N,/MEAS_NODE*%
X179451000Y-100049000D02*
X178300000Y-101200000D01*
X183949000Y-100049000D02*
X179451000Y-100049000D01*
X184700000Y-100800000D02*
X183949000Y-100049000D01*
D36*
%TO.N,/DISCH_GATE*%
X196499000Y-99850000D02*
X193062500Y-99850000D01*
X196499000Y-103299000D02*
X196499000Y-99850000D01*
X170236501Y-103299000D02*
X196499000Y-103299000D01*
X165537500Y-98599999D02*
X170236501Y-103299000D01*
X165537500Y-97862500D02*
X165537500Y-98599999D01*
%TO.N,/MOSI*%
X196880050Y-95819950D02*
X196900000Y-95800000D01*
X196900000Y-95819950D02*
X196880050Y-95819950D01*
X166813556Y-103700000D02*
X196900000Y-103700000D01*
X161761500Y-97077056D02*
X161761500Y-98647944D01*
X166660444Y-96824000D02*
X162014556Y-96824000D01*
X161761500Y-98647944D02*
X166813556Y-103700000D01*
X167137500Y-97862500D02*
X167137500Y-97301056D01*
X167137500Y-97301056D02*
X166660444Y-96824000D01*
X162014556Y-96824000D02*
X161761500Y-97077056D01*
X196900000Y-103700000D02*
X196900000Y-95819950D01*
D38*
%TO.N,/MEAS_NODE*%
X175300000Y-101200000D02*
X178300000Y-101200000D01*
X174900000Y-100800000D02*
X175300000Y-101200000D01*
%TO.N,GND*%
X161000000Y-103450000D02*
X161000000Y-103600000D01*
X170894000Y-93300000D02*
X169300000Y-93300000D01*
X124425000Y-96037500D02*
X126062500Y-96037500D01*
X161200000Y-127000000D02*
X167700000Y-127000000D01*
X126286500Y-95813500D02*
X127085000Y-95813500D01*
X178850000Y-90000000D02*
X176587500Y-87737500D01*
X126062500Y-96037500D02*
X126286500Y-95813500D01*
X189700000Y-76000000D02*
X189700000Y-75500000D01*
X160975000Y-92500000D02*
X166338556Y-92500000D01*
X190650000Y-101750000D02*
X190600000Y-101700000D01*
X178850000Y-85475000D02*
X178850000Y-83175000D01*
X208049000Y-68051000D02*
X204900000Y-71200000D01*
X152060000Y-127000000D02*
X161200000Y-127000000D01*
X204900000Y-71200000D02*
X199700000Y-71200000D01*
X124425000Y-97862500D02*
X124425000Y-99025000D01*
X127085000Y-96890000D02*
X127000000Y-96975000D01*
X167138556Y-93300000D02*
X169300000Y-93300000D01*
X138960000Y-127260000D02*
X138960000Y-125100000D01*
X180800000Y-83300000D02*
X180675000Y-83175000D01*
X178850000Y-94637500D02*
X180662500Y-94637500D01*
X125312500Y-92000000D02*
X124425000Y-91112500D01*
X166338556Y-92500000D02*
X167138556Y-93300000D01*
X124425000Y-99025000D02*
X125400000Y-100000000D01*
X166338556Y-92500000D02*
X166338556Y-91238556D01*
X165600000Y-80300000D02*
X165575000Y-80325000D01*
X206380000Y-63300000D02*
X208000000Y-63300000D01*
X176587500Y-87737500D02*
X178850000Y-85475000D01*
X199700000Y-71200000D02*
X198660000Y-72240000D01*
X198660000Y-72240000D02*
X198660000Y-74300000D01*
X160400000Y-84700000D02*
X161600000Y-83500000D01*
X138960000Y-125100000D02*
X125400000Y-111540000D01*
X148160000Y-127300000D02*
X139000000Y-127300000D01*
X180662500Y-94637500D02*
X180700000Y-94600000D01*
X160400000Y-85650000D02*
X160400000Y-84700000D01*
X160975000Y-94100000D02*
X164738556Y-94100000D01*
X208049000Y-63349000D02*
X208049000Y-68051000D01*
X126062500Y-96037500D02*
X127000000Y-96975000D01*
X161600000Y-83500000D02*
X161600000Y-80200000D01*
X127000000Y-92000000D02*
X125312500Y-92000000D01*
X124425000Y-93337500D02*
X124425000Y-96037500D01*
X165575000Y-85600000D02*
X165675000Y-85700000D01*
X150260000Y-125200000D02*
X152060000Y-127000000D01*
X139000000Y-127300000D02*
X138960000Y-127260000D01*
X165575000Y-80325000D02*
X165575000Y-82600000D01*
X208000000Y-63300000D02*
X208049000Y-63349000D01*
X166338556Y-91238556D02*
X166300000Y-91200000D01*
X150260000Y-125200000D02*
X148160000Y-127300000D01*
X158000000Y-82300000D02*
X160400000Y-84700000D01*
X189700000Y-83200000D02*
X189700000Y-76000000D01*
X193062500Y-101750000D02*
X190650000Y-101750000D01*
X131525000Y-101500000D02*
X127000000Y-96975000D01*
X132350000Y-101500000D02*
X131525000Y-101500000D01*
X164738556Y-94100000D02*
X166338556Y-92500000D01*
X161000000Y-102500000D02*
X161000000Y-103450000D01*
X161000000Y-103600000D02*
X164500000Y-107100000D01*
X124425000Y-91112500D02*
X124425000Y-93337500D01*
X125400000Y-111540000D02*
X125400000Y-100000000D01*
X124425000Y-97862500D02*
X124425000Y-96037500D01*
X158000000Y-63800000D02*
X158000000Y-82300000D01*
X165575000Y-82600000D02*
X165575000Y-85600000D01*
X180675000Y-83175000D02*
X178850000Y-83175000D01*
D36*
%TO.N,/ADC_MEAS*%
X173800000Y-90600000D02*
X177824000Y-94624000D01*
X173800000Y-84100000D02*
X173800000Y-90600000D01*
X165100000Y-63800000D02*
X165100000Y-67400000D01*
X177824000Y-95686500D02*
X178850000Y-96712500D01*
X173400000Y-83700000D02*
X173800000Y-84100000D01*
X172700000Y-91700000D02*
X173800000Y-90600000D01*
X169300000Y-91700000D02*
X172700000Y-91700000D01*
X177824000Y-94624000D02*
X177824000Y-95686500D01*
%TO.N,Net-(U1-AREF)*%
X179575000Y-92075000D02*
X183600000Y-96100000D01*
X169300000Y-94100000D02*
X172700000Y-94100000D01*
X178850000Y-92075000D02*
X179575000Y-92075000D01*
%TO.N,+5V_BOARD*%
X161501000Y-87693950D02*
X161606050Y-87693950D01*
X159814661Y-101101000D02*
X161456050Y-101101000D01*
X197750000Y-115800000D02*
X200950000Y-112600000D01*
X145330468Y-87049000D02*
X135940968Y-96438500D01*
X195621000Y-94779000D02*
X194700000Y-95700000D01*
X203500000Y-82300000D02*
X201200000Y-80000000D01*
X150100000Y-63800000D02*
X150100000Y-91386339D01*
X203200000Y-61400000D02*
X207700000Y-61400000D01*
X163500000Y-85600000D02*
X163600000Y-85700000D01*
X204449000Y-75451000D02*
X202351000Y-75451000D01*
X159494950Y-93300000D02*
X158151000Y-91956050D01*
X176155050Y-115800000D02*
X197750000Y-115800000D01*
X208800000Y-68800000D02*
X205000000Y-72600000D01*
X161606050Y-87693950D02*
X163600000Y-85700000D01*
X201200000Y-80000000D02*
X201200000Y-74300000D01*
X134650000Y-95829468D02*
X134650000Y-93525000D01*
X169300000Y-95700000D02*
X172600000Y-95700000D01*
X199100000Y-82100000D02*
X201200000Y-80000000D01*
X180900000Y-87500000D02*
X180850000Y-87550000D01*
X163938556Y-94900000D02*
X164738556Y-95700000D01*
X150100000Y-91386339D02*
X159814661Y-101101000D01*
X161501000Y-87693950D02*
X160856050Y-87049000D01*
X161456050Y-101101000D02*
X176155050Y-115800000D01*
X208800000Y-62500000D02*
X208800000Y-68800000D01*
X207700000Y-61400000D02*
X208800000Y-62500000D01*
X204685160Y-94779000D02*
X195621000Y-94779000D01*
X164738556Y-95700000D02*
X169300000Y-95700000D01*
X135259032Y-96438500D02*
X134650000Y-95829468D01*
X197900000Y-82100000D02*
X199100000Y-82100000D01*
X201300000Y-63300000D02*
X203200000Y-61400000D01*
X133500000Y-75218532D02*
X145330468Y-87049000D01*
X205000000Y-74900000D02*
X204449000Y-75451000D01*
X202351000Y-75451000D02*
X201200000Y-74300000D01*
X205000000Y-72600000D02*
X205000000Y-74900000D01*
X158151000Y-91956050D02*
X161501000Y-88606050D01*
X133500000Y-63800000D02*
X133500000Y-75218532D01*
X163500000Y-72500000D02*
X172200000Y-63800000D01*
X203500000Y-82300000D02*
X205001000Y-83801000D01*
X135940968Y-96438500D02*
X135259032Y-96438500D01*
X163500000Y-82600000D02*
X163500000Y-72500000D01*
X160856050Y-87049000D02*
X145330468Y-87049000D01*
X163500000Y-82600000D02*
X163500000Y-85600000D01*
X161501000Y-88606050D02*
X161501000Y-87693950D01*
X180900000Y-87500000D02*
X192400000Y-87500000D01*
X180850000Y-87550000D02*
X178850000Y-87550000D01*
%TO.N,Net-(U1-XTAL1{slash}PB6)*%
X160400000Y-88150000D02*
X157100000Y-91450000D01*
X157100000Y-91450000D02*
X157100000Y-92020000D01*
X157100000Y-92020000D02*
X157100000Y-93080660D01*
X159719340Y-95700000D02*
X160975000Y-95700000D01*
X157100000Y-93080660D02*
X159719340Y-95700000D01*
%TO.N,Net-(U1-XTAL2{slash}PB7)*%
X160975000Y-96500000D02*
X160800000Y-96500000D01*
X160800000Y-96500000D02*
X160400000Y-96900000D01*
X160400000Y-96900000D02*
X157100000Y-96900000D01*
X161000000Y-100000000D02*
X161000000Y-96525000D01*
X161000000Y-96525000D02*
X160975000Y-96500000D01*
%TO.N,/START_BTN*%
X167937500Y-89537500D02*
X167937500Y-90962500D01*
X167937500Y-90962500D02*
X167900000Y-91000000D01*
X167937500Y-89537500D02*
X167937500Y-88312557D01*
X167700000Y-122500000D02*
X161200000Y-122500000D01*
X167937500Y-88312557D02*
X175150057Y-81100000D01*
X175150057Y-81100000D02*
X178850000Y-81100000D01*
%TO.N,Net-(D1-A)*%
X153550000Y-117700000D02*
X153550000Y-124450000D01*
X153550000Y-124450000D02*
X152800000Y-125200000D01*
%TO.N,Net-(D2-A)*%
X143150000Y-117400000D02*
X143150000Y-123450000D01*
X143150000Y-123450000D02*
X141500000Y-125100000D01*
D39*
%TO.N,/USB_5V*%
X127085000Y-93187500D02*
X129881052Y-93187500D01*
D38*
X135600000Y-95400000D02*
X135600000Y-90100000D01*
X135600000Y-90100000D02*
X137400000Y-88300000D01*
X124800000Y-80362921D02*
X129889523Y-85452444D01*
X129889523Y-85452444D02*
X129889523Y-87958477D01*
X129881052Y-87966948D02*
X129881052Y-93187500D01*
X135600000Y-85359256D02*
X129982711Y-85359256D01*
X129889523Y-87958477D02*
X129881052Y-87966948D01*
X129982711Y-85359256D02*
X129889523Y-85452444D01*
X124800000Y-80362921D02*
X124800000Y-63800000D01*
X135600000Y-95400000D02*
X135600000Y-85359256D01*
D36*
%TO.N,/I2C_SDA*%
X203500000Y-77080000D02*
X203500000Y-80300000D01*
X145100000Y-60800000D02*
X209200000Y-60800000D01*
X206280000Y-74300000D02*
X203500000Y-77080000D01*
X148400000Y-70100000D02*
X148400000Y-70400000D01*
X142100000Y-63800000D02*
X148400000Y-70100000D01*
X209200000Y-60800000D02*
X209200000Y-71380000D01*
X167900000Y-87200000D02*
X166337500Y-88762500D01*
X142100000Y-63800000D02*
X145100000Y-60800000D01*
X166337500Y-88762500D02*
X166337500Y-89537500D01*
X209200000Y-71380000D02*
X206280000Y-74300000D01*
%TO.N,/I2C_SCL*%
X165537500Y-89537500D02*
X165537500Y-90274999D01*
X195600000Y-78900000D02*
X195600000Y-79300000D01*
X200723240Y-73149000D02*
X199811000Y-74061240D01*
X192200000Y-75500000D02*
X195600000Y-78900000D01*
X202589000Y-73149000D02*
X200723240Y-73149000D01*
X199811000Y-74061240D02*
X199811000Y-78189000D01*
X165537500Y-90274999D02*
X164612499Y-91200000D01*
X164612499Y-91200000D02*
X163400000Y-91200000D01*
X199811000Y-78189000D02*
X197900000Y-80100000D01*
X199422000Y-77800000D02*
X199811000Y-78189000D01*
X203740000Y-74300000D02*
X202589000Y-73149000D01*
X197700000Y-77800000D02*
X199422000Y-77800000D01*
D38*
%TO.N,/MEAS_NODE*%
X184700000Y-100800000D02*
X184700000Y-88200000D01*
X184700000Y-88200000D02*
X184799000Y-88101000D01*
X184799000Y-88101000D02*
X188401000Y-88101000D01*
X174900000Y-93700000D02*
X174900000Y-100800000D01*
X188700000Y-85900000D02*
X190600000Y-85900000D01*
X188350000Y-86250000D02*
X186100000Y-84000000D01*
X173800000Y-92600000D02*
X174900000Y-93700000D01*
X184700000Y-100800000D02*
X189000000Y-100800000D01*
D37*
X203400000Y-107150000D02*
X203400000Y-99650000D01*
D38*
X188350000Y-86250000D02*
X188700000Y-85900000D01*
D37*
X200950000Y-109600000D02*
X203400000Y-107150000D01*
D38*
X189000000Y-100800000D02*
X189000000Y-101700000D01*
X188401000Y-88101000D02*
X188400000Y-88100000D01*
X186100000Y-84000000D02*
X186100000Y-63800000D01*
D36*
%TO.N,/RESET*%
X164737500Y-88976056D02*
X179100000Y-74613556D01*
X187080000Y-94480000D02*
X185500000Y-92900000D01*
X179100000Y-74613556D02*
X179100000Y-63800000D01*
X164737500Y-89537500D02*
X164737500Y-88976056D01*
X186000000Y-86500000D02*
X179100000Y-79600000D01*
X187080000Y-95700000D02*
X187080000Y-94480000D01*
X179100000Y-79600000D02*
X179100000Y-74613556D01*
%TO.N,/MISO*%
X167937500Y-97862500D02*
X172562500Y-97862500D01*
X172562500Y-97862500D02*
X172600000Y-97900000D01*
%TO.N,/MOSI*%
X202689000Y-66753000D02*
X202689000Y-64451000D01*
X196377000Y-91777000D02*
X196377000Y-73065000D01*
X196900000Y-92300000D02*
X196377000Y-91777000D01*
X202689000Y-64451000D02*
X203840000Y-63300000D01*
X196377000Y-73065000D02*
X202689000Y-66753000D01*
%TO.N,/SCK*%
X169300000Y-96500000D02*
X172600000Y-96500000D01*
%TO.N,/DISCH_GATE*%
X187080000Y-93867500D02*
X187080000Y-91000000D01*
X188500000Y-68500000D02*
X193200000Y-63800000D01*
X188500000Y-84300000D02*
X188500000Y-68500000D01*
X193062500Y-99850000D02*
X187080000Y-93867500D01*
%TO.N,Net-(Q1-G)*%
X133700000Y-89500000D02*
X132500000Y-88300000D01*
X133700000Y-97950000D02*
X137250000Y-101500000D01*
X133700000Y-95400000D02*
X133700000Y-89500000D01*
X133700000Y-95400000D02*
X133700000Y-97950000D01*
%TO.N,/LED_PWR*%
X162337500Y-90637500D02*
X162400000Y-90700000D01*
X162400000Y-112700000D02*
X153650000Y-112700000D01*
X162337500Y-89537500D02*
X162337500Y-90637500D01*
X153650000Y-112700000D02*
X148650000Y-117700000D01*
%TO.N,/LED_ERR*%
X152200000Y-94500000D02*
X138250000Y-108450000D01*
X160975000Y-90900000D02*
X160055580Y-90900000D01*
X160055580Y-90900000D02*
X159827790Y-91127790D01*
X138250000Y-108450000D02*
X138250000Y-117400000D01*
%TO.N,/LM317_OUT*%
X187380000Y-105800000D02*
X192680000Y-111100000D01*
X192680000Y-111100000D02*
X201037500Y-111100000D01*
%TD*%
M02*
