%TF.GenerationSoftware,KiCad,Pcbnew,9.0.7*%
%TF.CreationDate,2026-04-26T10:33:40+02:00*%
%TF.ProjectId,KapTesterV2,4b617054-6573-4746-9572-56322e6b6963,rev?*%
%TF.SameCoordinates,Original*%
%TF.FileFunction,Soldermask,Bot*%
%TF.FilePolarity,Negative*%
%FSLAX46Y46*%
G04 Gerber Fmt 4.6, Leading zero omitted, Abs format (unit mm)*
G04 Created by KiCad (PCBNEW 9.0.7) date 2026-04-26 10:33:40*
%MOMM*%
%LPD*%
G01*
G04 APERTURE LIST*
G04 Aperture macros list*
%AMRoundRect*
0 Rectangle with rounded corners*
0 $1 Rounding radius*
0 $2 $3 $4 $5 $6 $7 $8 $9 X,Y pos of 4 corners*
0 Add a 4 corners polygon primitive as box body*
4,1,4,$2,$3,$4,$5,$6,$7,$8,$9,$2,$3,0*
0 Add four circle primitives for the rounded corners*
1,1,$1+$1,$2,$3*
1,1,$1+$1,$4,$5*
1,1,$1+$1,$6,$7*
1,1,$1+$1,$8,$9*
0 Add four rect primitives between the rounded corners*
20,1,$1+$1,$2,$3,$4,$5,0*
20,1,$1+$1,$4,$5,$6,$7,0*
20,1,$1+$1,$6,$7,$8,$9,0*
20,1,$1+$1,$8,$9,$2,$3,0*%
G04 Aperture macros list end*
%ADD10R,1.700000X1.700000*%
%ADD11C,1.600000*%
%ADD12C,2.000000*%
%ADD13R,1.800000X1.800000*%
%ADD14C,1.800000*%
%ADD15C,1.700000*%
%ADD16C,1.500000*%
%ADD17RoundRect,0.250000X1.050000X-1.050000X1.050000X1.050000X-1.050000X1.050000X-1.050000X-1.050000X0*%
%ADD18C,2.600000*%
G04 APERTURE END LIST*
D10*
%TO.C,JTP4*%
X150100000Y-63800000D03*
%TD*%
%TO.C,JTP5*%
X158000000Y-63800000D03*
%TD*%
%TO.C,JTP8*%
X179100000Y-63800000D03*
%TD*%
%TO.C,JTP1*%
X124800000Y-63800000D03*
%TD*%
D11*
%TO.C,C7*%
X161000000Y-102500000D03*
X161000000Y-100000000D03*
%TD*%
D12*
%TO.C,SW1*%
X161200000Y-122500000D03*
X167700000Y-122500000D03*
X161200000Y-127000000D03*
X167700000Y-127000000D03*
%TD*%
D13*
%TO.C,D2*%
X138960000Y-125100000D03*
D14*
X141500000Y-125100000D03*
%TD*%
D11*
%TO.C,R10*%
X187080000Y-95700000D03*
X194700000Y-95700000D03*
%TD*%
D10*
%TO.C,JTP2*%
X133500000Y-63800000D03*
%TD*%
%TO.C,JTP3*%
X142100000Y-63800000D03*
%TD*%
%TO.C,JTP6*%
X165100000Y-63800000D03*
%TD*%
%TO.C,J2*%
X198660000Y-74300000D03*
D15*
X201200000Y-74300000D03*
X203740000Y-74300000D03*
X206280000Y-74300000D03*
%TD*%
D11*
%TO.C,C6*%
X160400000Y-88150000D03*
X160400000Y-85650000D03*
%TD*%
%TO.C,R8*%
X187380000Y-105800000D03*
X195000000Y-105800000D03*
%TD*%
D10*
%TO.C,J4*%
X201300000Y-65840000D03*
D15*
X201300000Y-63300000D03*
X203840000Y-65840000D03*
X203840000Y-63300000D03*
X206380000Y-65840000D03*
X206380000Y-63300000D03*
%TD*%
D13*
%TO.C,D1*%
X150260000Y-125200000D03*
D14*
X152800000Y-125200000D03*
%TD*%
D11*
%TO.C,R9*%
X187080000Y-91000000D03*
X194700000Y-91000000D03*
%TD*%
D10*
%TO.C,JTP10*%
X193200000Y-63800000D03*
%TD*%
%TO.C,JTP7*%
X172200000Y-63800000D03*
%TD*%
D16*
%TO.C,Y1*%
X157100000Y-96900000D03*
X157100000Y-92020000D03*
%TD*%
D17*
%TO.C,J3*%
X203400000Y-96380000D03*
D18*
X203400000Y-91300000D03*
%TD*%
D10*
%TO.C,JTP9*%
X186100000Y-63800000D03*
%TD*%
M02*
