%TF.GenerationSoftware,KiCad,Pcbnew,9.0.7*%
%TF.CreationDate,2026-04-26T10:33:40+02:00*%
%TF.ProjectId,KapTesterV2,4b617054-6573-4746-9572-56322e6b6963,rev?*%
%TF.SameCoordinates,Original*%
%TF.FileFunction,Paste,Top*%
%TF.FilePolarity,Positive*%
%FSLAX46Y46*%
G04 Gerber Fmt 4.6, Leading zero omitted, Abs format (unit mm)*
G04 Created by KiCad (PCBNEW 9.0.7) date 2026-04-26 10:33:40*
%MOMM*%
%LPD*%
G01*
G04 APERTURE LIST*
G04 Aperture macros list*
%AMRoundRect*
0 Rectangle with rounded corners*
0 $1 Rounding radius*
0 $2 $3 $4 $5 $6 $7 $8 $9 X,Y pos of 4 corners*
0 Add a 4 corners polygon primitive as box body*
4,1,4,$2,$3,$4,$5,$6,$7,$8,$9,$2,$3,0*
0 Add four circle primitives for the rounded corners*
1,1,$1+$1,$2,$3*
1,1,$1+$1,$4,$5*
1,1,$1+$1,$6,$7*
1,1,$1+$1,$8,$9*
0 Add four rect primitives between the rounded corners*
20,1,$1+$1,$2,$3,$4,$5,0*
20,1,$1+$1,$4,$5,$6,$7,0*
20,1,$1+$1,$6,$7,$8,$9,0*
20,1,$1+$1,$8,$9,$2,$3,0*%
%AMFreePoly0*
4,1,9,3.862500,-0.866500,0.737500,-0.866500,0.737500,-0.450000,-0.737500,-0.450000,-0.737500,0.450000,0.737500,0.450000,0.737500,0.866500,3.862500,0.866500,3.862500,-0.866500,3.862500,-0.866500,$1*%
G04 Aperture macros list end*
%ADD10RoundRect,0.250000X-0.350000X-0.450000X0.350000X-0.450000X0.350000X0.450000X-0.350000X0.450000X0*%
%ADD11RoundRect,0.250000X0.450000X-0.350000X0.450000X0.350000X-0.450000X0.350000X-0.450000X-0.350000X0*%
%ADD12R,1.380000X0.450000*%
%ADD13R,1.300000X1.650000*%
%ADD14R,1.550000X1.425000*%
%ADD15R,1.900000X1.800000*%
%ADD16R,1.900000X1.000000*%
%ADD17RoundRect,0.137500X-0.600000X-0.137500X0.600000X-0.137500X0.600000X0.137500X-0.600000X0.137500X0*%
%ADD18RoundRect,0.137500X-0.137500X-0.600000X0.137500X-0.600000X0.137500X0.600000X-0.137500X0.600000X0*%
%ADD19RoundRect,0.250000X-0.475000X0.337500X-0.475000X-0.337500X0.475000X-0.337500X0.475000X0.337500X0*%
%ADD20RoundRect,0.225000X-0.425000X-0.225000X0.425000X-0.225000X0.425000X0.225000X-0.425000X0.225000X0*%
%ADD21FreePoly0,0.000000*%
%ADD22R,2.100000X2.600000*%
%ADD23RoundRect,0.250000X0.337500X0.475000X-0.337500X0.475000X-0.337500X-0.475000X0.337500X-0.475000X0*%
%ADD24RoundRect,0.150000X-0.587500X-0.150000X0.587500X-0.150000X0.587500X0.150000X-0.587500X0.150000X0*%
%ADD25RoundRect,0.150000X0.150000X-0.587500X0.150000X0.587500X-0.150000X0.587500X-0.150000X-0.587500X0*%
G04 APERTURE END LIST*
D10*
%TO.C,R20*%
X178300000Y-101200000D03*
X180300000Y-101200000D03*
%TD*%
D11*
%TO.C,R4*%
X203500000Y-82300000D03*
X203500000Y-80300000D03*
%TD*%
D12*
%TO.C,J1*%
X127085000Y-93187500D03*
X127085000Y-93837500D03*
X127085000Y-94487500D03*
X127085000Y-95137500D03*
X127085000Y-95787500D03*
D13*
X124425000Y-91112500D03*
D14*
X127000000Y-92000000D03*
D15*
X124425000Y-93337500D03*
D16*
X124425000Y-96037500D03*
D14*
X127000000Y-96975000D03*
D13*
X124425000Y-97862500D03*
%TD*%
D11*
%TO.C,R5*%
X197900000Y-82100000D03*
X197900000Y-80100000D03*
%TD*%
D17*
%TO.C,U1*%
X160975000Y-90900000D03*
X160975000Y-91700000D03*
X160975000Y-92500000D03*
X160975000Y-93300000D03*
X160975000Y-94100000D03*
X160975000Y-94900000D03*
X160975000Y-95700000D03*
X160975000Y-96500000D03*
D18*
X162337500Y-97862500D03*
X163137500Y-97862500D03*
X163937500Y-97862500D03*
X164737500Y-97862500D03*
X165537500Y-97862500D03*
X166337500Y-97862500D03*
X167137500Y-97862500D03*
X167937500Y-97862500D03*
D17*
X169300000Y-96500000D03*
X169300000Y-95700000D03*
X169300000Y-94900000D03*
X169300000Y-94100000D03*
X169300000Y-93300000D03*
X169300000Y-92500000D03*
X169300000Y-91700000D03*
X169300000Y-90900000D03*
D18*
X167937500Y-89537500D03*
X167137500Y-89537500D03*
X166337500Y-89537500D03*
X165537500Y-89537500D03*
X164737500Y-89537500D03*
X163937500Y-89537500D03*
X163137500Y-89537500D03*
X162337500Y-89537500D03*
%TD*%
D11*
%TO.C,R1*%
X173800000Y-92600000D03*
X173800000Y-90600000D03*
%TD*%
D19*
%TO.C,C5*%
X178850000Y-85475000D03*
X178850000Y-87550000D03*
%TD*%
D20*
%TO.C,U2*%
X200950000Y-109600000D03*
D21*
X201037500Y-111100000D03*
D20*
X200950000Y-112600000D03*
%TD*%
D22*
%TO.C,R6*%
X148650000Y-117700000D03*
X153550000Y-117700000D03*
%TD*%
D19*
%TO.C,C8*%
X178850000Y-81100000D03*
X178850000Y-83175000D03*
%TD*%
%TO.C,C2*%
X178850000Y-90000000D03*
X178850000Y-92075000D03*
%TD*%
D22*
%TO.C,R2*%
X137400000Y-88300000D03*
X132500000Y-88300000D03*
%TD*%
D23*
%TO.C,C4*%
X165575000Y-82600000D03*
X163500000Y-82600000D03*
%TD*%
D24*
%TO.C,Q2*%
X193062500Y-99850000D03*
X193062500Y-101750000D03*
X194937500Y-100800000D03*
%TD*%
D23*
%TO.C,C3*%
X165675000Y-85700000D03*
X163600000Y-85700000D03*
%TD*%
D22*
%TO.C,R3*%
X137250000Y-101500000D03*
X132350000Y-101500000D03*
%TD*%
%TO.C,R7*%
X138250000Y-117400000D03*
X143150000Y-117400000D03*
%TD*%
D19*
%TO.C,C1*%
X178850000Y-94637500D03*
X178850000Y-96712500D03*
%TD*%
D25*
%TO.C,Q1*%
X133700000Y-95400000D03*
X135600000Y-95400000D03*
X134650000Y-93525000D03*
%TD*%
M02*
